<?xml version="1.0" encoding="UTF-8"?>
<svg version="1.1" xmlns="http://www.w3.org/2000/svg" width="980" height="980">
<path d="M0 0 C323.4 0 646.8 0 980 0 C980 323.4 980 646.8 980 980 C656.6 980 333.2 980 0 980 C0 656.6 0 333.2 0 0 Z " fill="#F1F2F4" transform="translate(0,0)"/>
<path d="M0 0 C24.99659909 -1.46732915 49.98654077 -2.55032215 75.01793098 -3.21235466 C86.65139573 -3.52841144 98.25748758 -3.95765966 109.87353516 -4.67724609 C191.50487395 -9.6357872 191.50487395 -9.6357872 214.13594818 9.93720245 C224.08110383 19.07588637 232.6940907 29.3292618 241.31903076 39.69036865 C243.65242853 42.48008599 245.99732034 45.25941987 248.35595703 48.02783203 C248.92265956 48.69464776 249.48936209 49.36146349 250.07323742 50.04848576 C259.81481255 61.32219551 268.2502081 66.60689592 283.5319519 68.08810425 C293.78514022 68.53098744 303.82260211 67.89737226 314.00408936 66.72076416 C319.79432217 66.12684305 325.60059718 65.92059668 331.4140625 65.671875 C342.65283412 65.13842178 353.81558611 64.21428881 365 63 C365.13865479 62.21753906 365.27730957 61.43507813 365.42016602 60.62890625 C366.61093077 55.23010421 370.87526979 51.57275404 375.1953125 48.375 C382.12978431 44.34705598 389.13911796 43.84290755 397 45 C400.38662628 46.23592396 403.13167626 47.8330755 406 50 C406.83789062 50.60070312 407.67578125 51.20140625 408.5390625 51.8203125 C413.37021271 56.09933126 416.28639598 62.35149826 417.51953125 68.65625 C417.8692936 76.8432799 414.8614026 84.03451766 409.8125 90.375 C403.93928932 96.49602548 398.28091654 98.21464961 389.875 98.4375 C380.21887798 98.10595933 374.72705131 94.89371249 368 88 C365 83.78125 365 83.78125 365 81 C363.76181015 81.13989853 362.5236203 81.27979706 361.24790955 81.42393494 C267.41317296 91.68129902 267.41317296 91.68129902 248.12051392 76.58779716 C238.90845976 68.23564645 232.08907344 57.47951016 225.07064056 47.31035614 C215.11647991 33.12903404 203.43508252 20.05220192 185.74179721 16.54344612 C160.26547899 12.1530143 133.80523524 12.97086895 108.0625 13.5625 C107.12891442 13.58325293 106.19532885 13.60400586 105.2334528 13.62538767 C80.78222227 14.18141553 56.40321229 15.38124415 32 17 C32 27.89 32 38.78 32 50 C36.920271 49.51297607 36.920271 49.51297607 41.93994141 49.01611328 C57.14394797 47.60029735 72.36880524 46.70934016 87.625 46.125 C88.30594931 46.09820569 88.98689862 46.07141138 89.68848276 46.04380512 C122.08437408 44.8047423 152.04933183 44.59056347 177.25543213 67.83627319 C181.54633753 71.98564706 185.53406925 76.36201298 189.4375 80.875 C190.39677776 81.98097408 190.39677776 81.98097408 191.37543488 83.10929108 C213 108.30961575 213 108.30961575 213 114 C294.51 114 376.02 114 460 114 C460.66 112.02 461.32 110.04 462 108 C465.57326054 102.40226058 470.46936011 98.40868635 476.859375 96.421875 C485.93374783 94.63349495 493.30412383 95.93165868 501 101 C507.36306942 105.49271265 511.02277943 112.00368428 512.51953125 119.65625 C512.87031067 127.86708685 509.8641871 135.05540953 504.75 141.375 C499.33335179 146.98469438 495.04535926 149.11156279 487.13452148 149.46899414 C480.46187567 149.56592037 474.29196482 149.47508435 469 145 C461.58500436 137.75501308 461.58500436 137.75501308 460 133 C458.04334144 132.99918285 458.04334144 132.99918285 456.04715443 132.99834919 C425.09170126 132.98430911 394.13639989 132.94457546 363.18102999 132.87314438 C359.37207054 132.86437749 355.56311063 132.8558277 351.75415039 132.84741211 C350.99584579 132.84573305 350.23754119 132.84405398 349.45625766 132.84232404 C337.17322834 132.81564447 324.89024567 132.80655828 312.60719035 132.80395857 C300.00633258 132.80090056 287.40560987 132.77897162 274.80481309 132.73947543 C267.02757613 132.71569456 259.25060868 132.70668422 251.47334035 132.71648689 C245.51261541 132.72242435 239.55216251 132.70212348 233.59150505 132.67193985 C231.1441446 132.66367783 228.69673831 132.66399019 226.24938202 132.67340279 C222.9137349 132.68496437 219.57962222 132.66599664 216.24409485 132.63923645 C215.27035819 132.64990971 214.29662153 132.66058297 213.2933777 132.67157966 C208.73241452 132.60307564 206.68550191 132.53990184 203.00818157 129.64364147 C202.34548165 128.77123979 201.68278173 127.8988381 201 127 C197.78698595 123.02600894 194.62615758 119.70852931 190.69921875 116.4375 C187.51104588 113.74037904 184.67028906 110.87137577 182.125 107.5625 C179.86842716 104.84133864 177.43782796 102.73131032 174.734375 100.47265625 C171.53825929 97.75883728 168.68094819 94.88523265 166.125 91.5625 C163.86842716 88.84133864 161.43782796 86.73131032 158.734375 84.47265625 C155.4679671 81.69915224 152.58329496 78.7423754 149.9375 75.375 C148.11236392 72.94328702 148.11236392 72.94328702 145.75 71.3125 C145.1725 70.879375 144.595 70.44625 144 70 C144 69.34 144 68.68 144 68 C107.37 68 70.74 68 33 68 C33 79.88 33 91.76 33 104 C39.50074219 102.92105469 39.50074219 102.92105469 46.1328125 101.8203125 C52.11900458 101.06224455 58.10514237 100.53150496 64.125 100.125 C64.90333443 100.07222145 65.68166885 100.0194429 66.48358917 99.965065 C87.3133114 98.72297532 103.22091379 101.74079477 119.2262764 115.71712112 C125.93901091 121.7980418 132.23672371 128.21821944 138.375 134.875 C139.05646339 135.61231606 139.73792679 136.34963211 140.44004059 137.10929108 C147.31180651 144.58647508 153.99751154 152.21383224 160.41943359 160.08154297 C160.88936296 160.65407869 161.35929234 161.22661442 161.84346199 161.81649971 C165 165.75463946 165 165.75463946 165 168 C198.99 168 232.98 168 268 168 C268.33 166.35 268.66 164.7 269 163 C274.00639047 155.59653478 280.25070516 150.8375205 289 149 C296.86089368 148.08314624 302.68553815 150.06927546 309.16796875 154.47265625 C315.3201966 159.35519355 319.21519055 165.13032168 320.4765625 172.95703125 C320.84130129 180.4341764 318.96439775 185.73555808 315 192 C314.443125 192.928125 313.88625 193.85625 313.3125 194.8125 C306.86291862 200.91345536 298.59761165 203.3954364 289.91015625 203.26953125 C282.06184208 202.54264041 277.02100751 198.57690258 271.62890625 193.09765625 C269.86433985 190.82530096 269.01479639 188.67642548 268 186 C266.76181015 186.13989853 265.5236203 186.27979706 264.24790955 186.42393494 C248.50753071 188.14450443 232.75688665 189.26392715 216.9375 189.9375 C215.67359058 189.99142914 214.40968117 190.04535828 213.10747147 190.10092163 C161.3026817 192.05027508 161.3026817 192.05027508 143.46073914 176.04095459 C136.54461221 169.33175866 130.38971607 162.06462107 124.4375 154.5 C106.61890865 130.37042255 106.61890865 130.37042255 80.06019592 119.14199829 C71.26854788 118.25049889 62.56247082 118.31126267 53.75 118.8125 C52.91448986 118.85829193 52.07897972 118.90408386 51.21815109 118.95126343 C40.02842606 119.61437447 29.03274077 121.0490121 18 123 C16.39532867 123.2791777 16.39532867 123.2791777 14.75823975 123.56399536 C-15.57817868 129.01303544 -41.85301467 143.67533624 -61 168 C-61.59683594 168.69609375 -62.19367188 169.3921875 -62.80859375 170.109375 C-79.21504385 189.66071046 -86.17527697 215.6913997 -86.1875 240.6875 C-86.19974609 241.98623047 -86.21199219 243.28496094 -86.22460938 244.62304688 C-86.26987458 274.66405222 -74.18753516 304.47615475 -53 326 C-50.41539721 328.43787861 -47.73298316 330.73064791 -45 333 C-44.236875 333.65097656 -43.47375 334.30195312 -42.6875 334.97265625 C-32.11779008 343.76380921 -19.94090939 350.45494013 -7 355.0625 C-6.03900391 355.42698242 -6.03900391 355.42698242 -5.05859375 355.79882812 C2.40202637 358.4673801 10.22206914 359.6299449 18 361 C18.66422596 361.1173884 19.32845192 361.2347768 20.01280594 361.35572243 C31.14427089 363.28837058 42.28438155 364.48499393 53.5625 365.125 C54.41708424 365.17461254 55.27166847 365.22422508 56.1521492 365.27534103 C71.21682936 366.04422032 88.92146148 366.79756935 101.10155869 356.57578087 C110.50227095 347.822087 118.28960045 337.3723253 126.21307373 327.3069458 C139.85050827 310.13124052 152.33856352 297.26387666 174.95846081 294.64452267 C193.82266916 292.97805025 212.69449771 293.80128172 231.56225586 294.94750977 C232.75346542 295.0193665 233.94467499 295.09122324 235.17198181 295.16525745 C240.84941276 295.5252192 246.50040908 295.9642213 252.15774536 296.56385803 C253.18469544 296.6566249 254.21164553 296.74939177 255.26971531 296.84496975 C257.17478592 297.0184846 259.07703948 297.22860644 260.97301388 297.482934 C263.59979255 297.70245448 265.47836979 297.78228418 268 297 C270.02531423 294.86653868 271.37317839 292.75942227 272.770751 290.17532158 C274.39762209 287.29635419 276.29889295 286.04059043 279.1875 284.5 C280.02667969 284.0359375 280.86585938 283.571875 281.73046875 283.09375 C287.99962482 280.07246997 295.24114704 279.70562915 301.8359375 281.9765625 C309.7626753 285.85661734 314.83678767 290.20198306 319 298 C321.42989627 305.28968882 320.4559283 312.73279333 317.32421875 319.64453125 C312.69947532 327.87084478 306.80323267 332.06558911 298 335 C289.92447731 335.94057669 283.65599094 334.75584831 277 330 C272.16243788 325.58552499 269.30457977 322.52289883 268 316 C234.01 316 200.02 316 165 316 C164.34 317.32 163.68 318.64 163 320 C161.49369838 322.0298226 159.96813814 324.00184275 158.37597656 325.96191406 C157.66425356 326.84035666 157.66425356 326.84035666 156.93815231 327.73654556 C150.61996592 335.45878391 144.00952524 342.91274023 137.25 350.25 C136.27509865 351.31061394 136.27509865 351.31061394 135.28050232 352.39265442 C119.45537871 369.44565774 105.04890424 382.77440444 80.99742889 384.10359955 C75.39474477 384.30223906 69.84196432 384.11383437 64.25 383.75 C63.46418045 383.69890579 62.6783609 383.64781158 61.86872864 383.59516907 C52.12071045 382.91117577 42.68856864 381.54787783 33 380 C33 391.88 33 403.76 33 416 C46.25527037 417.32285926 59.45196238 418.33052068 72.76249027 418.8730154 C78.95420477 419.13623165 85.08864445 419.50555706 91.25024414 420.17993164 C119.24912898 423.34841918 119.24912898 423.34841918 144.7096839 413.64242411 C148.94223957 409.73609516 152.5548725 405.31635898 156.13842773 400.82055664 C156.68679574 400.13771071 157.23516375 399.45486479 157.80014896 398.75132656 C160.08832198 395.89534979 162.36573637 393.03090887 164.64089894 390.16456103 C182.0487332 368.31599684 198.17421222 351.24402511 227.02805996 347.47554874 C240.57577046 346.03932953 254.10195158 345.64071885 267.71484375 345.62890625 C268.41060041 345.62774334 269.10635708 345.62658043 269.82319728 345.62538227 C287.78912285 345.61102151 305.71926218 346.21234922 323.66479069 347.0169372 C334.08853441 347.47864141 344.50805488 347.77653783 354.94018555 347.96655273 C355.68233084 347.98011732 356.42447614 347.9936819 357.18911069 348.00765754 C360.91497831 348.07492602 364.64088626 348.13954673 368.36682308 348.20285523 C398.92903243 348.7255285 429.46001737 349.70808595 460 351 C460.92921265 349.33384644 460.92921265 349.33384644 461.87719727 347.6340332 C463.55746119 344.62118384 465.27968458 342.43480135 467.9375 340.1875 C468.58589844 339.62417969 469.23429688 339.06085938 469.90234375 338.48046875 C476.57675431 333.76985124 485.14048505 333.84098406 493 335 C500.4046341 337.65734634 506.59886714 343.02426841 510.02734375 350.12890625 C513.16008624 358.42995201 512.84999027 365.55194499 509.2578125 373.640625 C505.33542808 380.99814112 500.06648007 385.14496064 492.109375 387.578125 C484.23370228 389.15325954 477.19591685 388.53895429 470.1953125 384.5546875 C464.53848848 380.54860928 462.1046101 376.53038361 460 370 C428.92452478 369.96784695 397.84930302 369.97140666 366.77386642 370.02472496 C363.10396474 370.03099019 359.43406263 370.03695138 355.76416016 370.04272461 C355.03355802 370.04387905 354.30295588 370.04503349 353.55021429 370.04622292 C341.72506259 370.06418329 329.90004671 370.05752068 318.07489741 370.04173584 C305.93843481 370.02608437 293.80220408 370.03694604 281.66578197 370.07234758 C274.17863842 370.09335386 266.69207878 370.09375457 259.20494872 370.06768017 C253.46081569 370.04989286 247.71726 370.06901934 241.9732151 370.10184479 C239.61902481 370.10953712 237.26476047 370.10528918 234.91061974 370.08818626 C231.69374865 370.06660626 228.47990244 370.08811457 225.26318359 370.12025452 C224.33320399 370.10375557 223.40322439 370.08725663 222.44506359 370.07025772 C216.20588606 370.1952819 213.07597086 371.86135946 208.61320603 376.20985842 C206.41687205 378.6470851 204.5809058 381.1650145 202.82373047 383.93530273 C189.69565943 403.86612568 171.8958924 428.44641042 147.70069885 434.8768692 C128.33700068 438.76971242 108.15308478 438.19140742 88.5 437.5 C87.81853 437.47653047 87.13705999 437.45306094 86.43493938 437.42888021 C68.58073744 436.80070548 50.79428918 435.5903362 33 434 C33 444.89 33 455.78 33 467 C58.2436626 468.59184502 83.46149463 469.72048438 108.75 470.25 C110.12983794 470.27986638 110.12983794 470.27986638 111.5375514 470.31033611 C171.3641139 473.15711518 171.3641139 473.15711518 222.51742744 446.68068695 C225.81413803 443.31898664 228.84822798 439.78086525 231.8125 436.125 C232.38979355 435.4144899 232.9670871 434.7039798 233.56187439 433.97193909 C240.62770575 425.13088727 246.54996728 415.90310614 252 406 C252.66 405.01 253.32 404.02 254 403 C255.97962379 402.63085651 255.97962379 402.63085651 258.45449829 402.63923645 C259.39121872 402.63511246 260.32793915 402.63098846 261.29304504 402.6267395 C262.83915718 402.64291824 262.83915718 402.64291824 264.41650391 402.65942383 C265.49944229 402.65898575 266.58238068 402.65854767 267.69813538 402.65809631 C271.29112544 402.66019264 274.88365357 402.68356387 278.4765625 402.70703125 C280.96234889 402.71262419 283.44813857 402.71689571 285.93392944 402.71989441 C291.81653567 402.73019319 297.69897033 402.75385676 303.58150613 402.78394288 C310.93451612 402.82073512 318.28754657 402.83687113 325.640625 402.85351562 C338.76050149 402.88572215 351.88024021 402.93637357 365 403 C365.29801514 402.0514917 365.59603027 401.1029834 365.90307617 400.12573242 C368.00493337 394.13639841 373.36078175 389.74340347 379 387 C385.76395696 384.83737431 394.96541664 384.56061475 401.4375 387.625 C402.65182491 388.37487158 403.84093916 389.16725134 405 390 C405.61359375 390.40089844 406.2271875 390.80179688 406.859375 391.21484375 C412.85082769 395.63161977 416.05652202 402.07570701 417.4453125 409.32421875 C417.83895939 416.63292933 415.15466841 424.51005725 410.8125 430.375 C403.48147357 437.21729134 395.7982355 439.45973264 385.9140625 439.33984375 C379.2442163 438.56199305 373.89114286 435.38281667 369.5 430.375 C365 424.59302326 365 424.59302326 365 421 C352.67134778 419.63510201 340.36907873 418.66828368 327.97556973 418.1269846 C322.20529698 417.86408295 316.49676876 417.4962275 310.7590332 416.82006836 C294.74848895 414.98957979 273.82207813 412.81685708 260.2504921 423.35898113 C255.82482606 427.28734676 251.94798885 431.70039252 248.11132812 436.19482422 C247.23414661 437.22003506 247.23414661 437.22003506 246.33924425 438.26595724 C243.91146337 441.11893072 241.50003373 443.98520549 239.09725302 446.85925788 C219.72771045 470.0277427 203.59806743 487.60292934 172.21439898 490.48834217 C150.16728222 492.14951945 127.91758109 490.97993842 105.88777095 489.59422249 C94.32838021 488.88091053 82.76630639 488.5584058 71.1900723 488.25561333 C53.24093775 487.77793205 35.30959051 487.1051001 17.38134766 486.11328125 C16.03875665 486.04090933 16.03875665 486.04090933 14.66904259 485.96707535 C12.19602006 485.83203747 9.72354653 485.68984429 7.25112915 485.54418945 C6.52271682 485.50412875 5.7943045 485.46406805 5.04381907 485.42279339 C0.11614926 485.11614926 0.11614926 485.11614926 -1 484 C-1.37547575 481.15485107 -1.69333026 478.32381664 -1.97265625 475.46875 C-2.06002548 474.60366821 -2.14739471 473.73858643 -2.2374115 472.84729004 C-2.42194334 471.00811273 -2.60421168 469.16870716 -2.78442383 467.32910156 C-3.05866586 464.53900795 -3.34226086 461.74998177 -3.62695312 458.9609375 C-3.80525811 457.17193178 -3.98300935 455.38287076 -4.16015625 453.59375 C-4.24451431 452.76838745 -4.32887238 451.9430249 -4.41578674 451.09265137 C-4.93555387 445.7031195 -5.07287087 440.4148144 -5 435 C-6.216875 434.9175 -7.43375 434.835 -8.6875 434.75 C-14.03478763 434.18222144 -18.9085348 432.56244169 -23.984375 430.83984375 C-26.94404354 430.01558373 -28.96036855 429.66458007 -32 430 C-33.66195933 431.45565398 -33.66195933 431.45565398 -34.875 433.55859375 C-35.3793457 434.32953369 -35.88369141 435.10047363 -36.40332031 435.89477539 C-36.93022461 436.73387451 -37.45712891 437.57297363 -38 438.4375 C-39.13641161 440.17723868 -40.27715046 441.91415732 -41.421875 443.6484375 C-42.00646484 444.5362793 -42.59105469 445.42412109 -43.19335938 446.33886719 C-46.56355444 451.30307343 -50.26147449 456.01198747 -53.94921875 460.74194336 C-54.72458984 461.73786499 -54.72458984 461.73786499 -55.515625 462.75390625 C-55.97227539 463.33470947 -56.42892578 463.9155127 -56.89941406 464.51391602 C-58.08396482 466.02381871 -58.08396482 466.02381871 -59 468 C-63.71751483 467.44288396 -67.21881716 465.31299409 -71.1875 462.875 C-72.69184698 461.96992095 -74.19712003 461.06638004 -75.703125 460.1640625 C-76.53521484 459.66422852 -77.36730469 459.16439453 -78.22460938 458.64941406 C-84.68501616 454.80999567 -91.22034373 451.09769271 -97.73706055 447.35498047 C-104.19927974 443.6364775 -110.62307715 439.86307227 -117 436 C-115.12360087 429.96578164 -112.88006456 424.29375118 -110.13671875 418.60546875 C-109.40756604 417.05824278 -108.67906873 415.51070781 -107.95117188 413.96289062 C-106.81448031 411.55881637 -105.67302195 409.15740224 -104.52026367 406.76098633 C-103.39901234 404.4239203 -102.29774208 402.07828508 -101.19921875 399.73046875 C-100.84832687 399.01376511 -100.497435 398.29706146 -100.13591003 397.55863953 C-98.3089706 393.7882289 -98.3089706 393.7882289 -98.59375 389.74853516 C-101.31640229 386.36318173 -104.26447777 383.28201256 -107.3125 380.1875 C-108.30926758 379.12885742 -108.30926758 379.12885742 -109.32617188 378.04882812 C-109.97779297 377.38689453 -110.62941406 376.72496094 -111.30078125 376.04296875 C-111.89028564 375.43477295 -112.47979004 374.82657715 -113.0871582 374.19995117 C-114.95800458 372.76674537 -114.95800458 372.76674537 -117.35791016 373.15063477 C-120.33483088 374.10763968 -123.12317278 375.25682922 -125.97265625 376.546875 C-127.12056641 377.0625 -128.26847656 377.578125 -129.45117188 378.109375 C-130.64291016 378.65078125 -131.83464844 379.1921875 -133.0625 379.75 C-137.70297314 381.84553187 -142.34869389 383.92862719 -147 386 C-148.68585205 386.76280273 -148.68585205 386.76280273 -150.40576172 387.54101562 C-151.99735107 388.24000977 -151.99735107 388.24000977 -153.62109375 388.953125 C-154.56267334 389.37239258 -155.50425293 389.79166016 -156.47436523 390.22363281 C-159.19415382 391.05968189 -160.40729824 391.11609015 -163 390 C-164.24609375 388.05078125 -164.24609375 388.05078125 -165.4375 385.3125 C-168.34523143 379.12989934 -171.68481498 373.30211766 -175.1875 367.4375 C-176.02390015 366.0287561 -176.02390015 366.0287561 -176.87719727 364.59155273 C-179.13554868 360.79119651 -181.39931768 356.99440687 -183.68505859 353.21044922 C-185.2586676 350.6046427 -186.8176936 347.99057094 -188.375 345.375 C-189.09852661 344.19442017 -189.09852661 344.19442017 -189.83666992 342.98999023 C-190.26955322 342.25852783 -190.70243652 341.52706543 -191.1484375 340.7734375 C-191.72343994 339.82090088 -191.72343994 339.82090088 -192.31005859 338.84912109 C-193.2012378 336.46065992 -192.96407443 335.33918835 -192 333 C-189.88906718 331.20135311 -187.83354213 329.63305742 -185.5625 328.0625 C-184.90596436 327.59521484 -184.24942871 327.12792969 -183.57299805 326.64648438 C-182.14855919 325.63281006 -180.72109379 324.62337857 -179.29101562 323.61767578 C-176.07692776 321.34822286 -172.89152583 319.03987029 -169.70483398 316.73217773 C-166.76333736 314.60237688 -163.81606211 312.48064305 -160.8684082 310.359375 C-158.89749863 308.92542433 -156.94652353 307.46683585 -155 306 C-155.74771971 299.84508614 -157.34291557 294.21556999 -159.16015625 288.3046875 C-159.91040549 285.35254396 -160.17663086 283.01981792 -160 280 C-161.28189209 280.02255859 -162.56378418 280.04511719 -163.88452148 280.06835938 C-168.93692831 280.06589379 -173.8417863 279.55021541 -178.84765625 278.90625 C-179.64457886 278.80795898 -180.44150146 278.70966797 -181.26257324 278.60839844 C-184.19662883 278.2449094 -187.12950114 277.87191955 -190.0625 277.5 C-196.641875 276.675 -203.22125 275.85 -210 275 C-210 253.22 -210 231.44 -210 209 C-170.63001486 203.86478455 -170.63001486 203.86478455 -160 204 C-160.05285156 203.17628906 -160.10570312 202.35257813 -160.16015625 201.50390625 C-159.93579203 196.59525492 -158.32458139 192.43198214 -156.68945312 187.83398438 C-155.35875263 183.88686432 -154.38459787 180.95032835 -156 177 C-157.62529319 175.3644168 -157.62529319 175.3644168 -159.875 174.0625 C-165.26223051 170.52810311 -170.44832916 166.77409643 -175.625 162.9375 C-176.82358643 162.05300171 -176.82358643 162.05300171 -178.04638672 161.15063477 C-183.0485089 157.4570694 -188.03113937 153.73817514 -193 150 C-192.46135284 144.8472809 -189.91817281 141.03756389 -187.3125 136.6875 C-186.31639707 134.99609916 -185.3203038 133.30469262 -184.32421875 131.61328125 C-183.78974121 130.71174316 -183.25526367 129.81020508 -182.70458984 128.88134766 C-180.27480749 124.7741733 -177.86990584 120.65262993 -175.46557617 116.53051758 C-174.26565466 114.47335012 -173.06407402 112.41714924 -171.8605957 110.36206055 C-168.49942655 104.61435972 -165.20302554 98.83739142 -162 93 C-156.49821547 93.61032658 -151.90444138 95.51305339 -146.875 97.6875 C-145.61574707 98.22443481 -145.61574707 98.22443481 -144.33105469 98.7722168 C-137.75245294 101.60596909 -131.37344086 104.73208924 -125 108 C-120.73151822 110.30871375 -120.73151822 110.30871375 -116.03759766 110.77758789 C-113.51806058 109.81608231 -112.25722322 108.56876478 -110.3984375 106.62109375 C-109.41617188 105.61079102 -109.41617188 105.61079102 -108.4140625 104.58007812 C-107.74117188 103.87302734 -107.06828125 103.16597656 -106.375 102.4375 C-105.03320524 101.0359852 -103.687067 99.63861161 -102.3359375 98.24609375 C-101.44720947 97.31301392 -101.44720947 97.31301392 -100.54052734 96.36108398 C-99 95 -99 95 -97 95 C-97.22106415 94.49967255 -97.4421283 93.99934509 -97.66989136 93.4838562 C-99.97669719 88.26149898 -102.27971309 83.03748242 -104.58056641 77.8125 C-105.43897608 75.86448319 -106.29834101 73.91688702 -107.15869141 71.96972656 C-108.39739221 69.16582348 -109.63261442 66.36041005 -110.8671875 63.5546875 C-111.25059296 62.68883026 -111.63399841 61.82297302 -112.02902222 60.93087769 C-113.89942492 56.67108247 -115.62551763 52.45281617 -117 48 C-106.225199 41.74445839 -95.43233463 35.52348853 -84.59936523 29.36914062 C-78.50268959 25.89348173 -72.47043132 22.32399266 -66.52832031 18.58935547 C-63.76999445 16.89027131 -62.3087648 16 -59 16 C-57.74829102 17.30664062 -57.74829102 17.30664062 -56.50390625 19.15625 C-56.03339844 19.84162842 -55.56289063 20.52700684 -55.078125 21.2331543 C-54.57796875 21.98121338 -54.0778125 22.72927246 -53.5625 23.5 C-52.49306394 25.06008936 -51.42138808 26.61864534 -50.34765625 28.17578125 C-49.7973877 28.97580566 -49.24711914 29.77583008 -48.68017578 30.60009766 C-45.57450251 35.03612908 -42.2898466 39.33662169 -39.01000977 43.64453125 C-36.199433 47.34997705 -33.53848191 51.10247235 -31 55 C-30.41734375 54.81824219 -29.8346875 54.63648438 -29.234375 54.44921875 C-11.46153846 49 -11.46153846 49 -5 49 C-5.02835938 47.79988281 -5.05671875 46.59976563 -5.0859375 45.36328125 C-5.08342024 38.92537974 -4.33557041 32.57921749 -3.625 26.1875 C-3.49867188 24.99318359 -3.37234375 23.79886719 -3.2421875 22.56835938 C-2.62876264 16.93405205 -1.9080447 11.35283289 -0.96859741 5.76313782 C-0.78750616 4.68358479 -0.60641491 3.60403177 -0.41983604 2.49176502 C-0.2120172 1.25834134 -0.2120172 1.25834134 0 0 Z " fill="#222021" transform="translate(339,248)"/>
<path d="M0 0 C0.78568359 0.00418945 1.57136719 0.00837891 2.38085938 0.01269531 C8.99341201 0.13996393 14.9740058 1.17442268 21.25 3.3125 C22.09691406 3.5909375 22.94382812 3.869375 23.81640625 4.15625 C40.67338754 10.27646856 53.08579777 22.52324097 61.25 38.3125 C64.40452648 45.24512214 65.3853565 50.53070853 66.25 58.3125 C167.56 58.3125 268.87 58.3125 373.25 58.3125 C373.58 56.6625 373.91 55.0125 374.25 53.3125 C378.73397844 46.82713606 384.08090372 41.90299116 391.6875 39.5625 C401.20032361 38.63441965 409.62383291 40.01040875 417.25 46.25 C423.09542897 51.81641088 425.31981543 58.08578748 425.6875 66.0625 C425.55282947 73.80605529 422.76141911 79.35031336 417.8125 85.1875 C410.7099428 91.07742548 404.15444351 93.91332993 394.8671875 93.6875 C387.45170087 92.62498251 381.70898089 88.32569505 376.52734375 83.15625 C375.25 81.3125 375.25 81.3125 374.25 76.3125 C272.28 76.3125 170.31 76.3125 65.25 76.3125 C64.92 79.2825 64.59 82.2525 64.25 85.3125 C59.04799161 102.46623013 47.83865616 115.68635745 32.484375 124.625 C27.85811428 127.03870124 23.26261638 128.8760036 18.25 130.3125 C17.10724609 130.64894531 17.10724609 130.64894531 15.94140625 130.9921875 C-1.68676235 135.33234368 -19.36372105 131.57414364 -34.75 122.3125 C-44.89103269 115.29961943 -51.80550354 107.02641803 -57.75 96.3125 C-58.32234375 95.36117187 -58.32234375 95.36117187 -58.90625 94.390625 C-66.46449166 80.99192387 -66.68087555 63.01509014 -63.125 48.375 C-57.78446452 30.85953747 -45.79272369 16.19241739 -29.75 7.3125 C-19.98503176 2.96984828 -10.71118965 -0.07882694 0 0 Z " fill="#222122" transform="translate(370.75,423.6875)"/>
<path d="M0 0 C7.59240283 4.35410961 12.74716699 9.30400098 15.5625 17.75 C16.55763552 27.55453196 14.53028823 35.42746354 8.3125 43.125 C3.01911466 48.77203824 -3.77311032 51.8359365 -11.5 52.125 C-18.9443425 52.01696864 -24.32274692 49.59234068 -29.8046875 44.58984375 C-33.67118454 40.46879086 -35.29555643 38.45971787 -36.4375 32.75 C-70.4275 32.75 -104.4175 32.75 -139.4375 32.75 C-139.4375 33.41 -139.4375 34.07 -139.4375 34.75 C-142.4075 35.245 -142.4075 35.245 -145.4375 35.75 C-144.9425 34.821875 -144.9425 34.821875 -144.4375 33.875 C-143.29556765 31.83981656 -143.29556765 31.83981656 -143.4375 29.75 C-145.0875 29.42 -146.7375 29.09 -148.4375 28.75 C-148.416875 27.6775 -148.39625 26.605 -148.375 25.5 C-148.2613724 21.95574198 -148.2613724 21.95574198 -149.125 19.5 C-149.228125 18.9225 -149.33125 18.345 -149.4375 17.75 C-147.87116548 15.67594154 -146.95567444 14.84000963 -144.36720562 14.39037895 C-143.56658608 14.39745935 -142.76596655 14.40453976 -141.94108582 14.41183472 C-140.55957085 14.41253716 -140.55957085 14.41253716 -139.15014648 14.41325378 C-137.63759277 14.43661552 -137.63759277 14.43661552 -136.09448242 14.46044922 C-135.03078934 14.4647142 -133.96709625 14.46897919 -132.87117004 14.47337341 C-130.55812788 14.48368825 -128.24510756 14.50040272 -125.93214989 14.52270126 C-122.27134572 14.55487755 -118.61120938 14.56364574 -114.95027161 14.56497192 C-104.54067994 14.57059179 -94.13162916 14.59974831 -83.72241211 14.69140625 C-77.35793434 14.74576964 -70.99463746 14.75651733 -64.62996864 14.73926163 C-62.20382058 14.74120672 -59.77762732 14.75971705 -57.35173607 14.79507065 C-53.95603475 14.84313931 -50.56458877 14.83576985 -47.16870117 14.81591797 C-45.6652565 14.85749779 -45.6652565 14.85749779 -44.13143921 14.8999176 C-41.29350287 14.84968905 -39.10923202 14.71660955 -36.4375 13.75 C-34.39208741 11.59874048 -33.03327764 9.50424044 -31.63327503 6.89184761 C-30.0310113 4.02190581 -28.11879869 2.78002597 -25.25 1.25 C-24.41082031 0.7859375 -23.57164062 0.321875 -22.70703125 -0.15625 C-15.43500783 -3.6608396 -7.22638295 -3.5372385 0 0 Z " fill="#232122" transform="translate(643.4375,531.25)"/>
<path d="M0 0 C5.21653401 2.89898436 8.1019871 6.00597666 11 11.25 C12.98017112 18.81065338 11.43574932 25.14439751 7.6875 31.875 C3.8294868 36.54464134 -1.71839842 39.33170558 -7.6640625 40.23046875 C-14.25125722 40.6077539 -19.23784564 39.14737567 -24.3125 34.875 C-29.79475625 28.79365183 -31.17729948 22.87637583 -30.76953125 14.796875 C-30.1634447 10.92206525 -28.97005596 8.74803347 -26.3125 5.875 C-25.52875 4.988125 -24.745 4.10125 -23.9375 3.1875 C-16.60208471 -3.27465156 -8.80339016 -4.06714002 0 0 Z " fill="#EFF0F1" transform="translate(381.3125,471.125)"/>
<path d="M0 0 C38.94 0 77.88 0 118 0 C117.34 0.66 116.68 1.32 116 2 C116 2.99 116 3.98 116 5 C79.04 5 42.08 5 4 5 C3.67 4.01 3.34 3.02 3 2 C2.01 1.67 1.02 1.34 0 1 C0 0.67 0 0.34 0 0 Z " fill="#3D3B3C" transform="translate(372,298)"/>
<path d="M0 0 C0.33 0.99 0.66 1.98 1 3 C3.01508358 3.73323796 3.01508358 3.73323796 5 4 C5 4.66 5 5.32 5 6 C5.99 6.33 6.98 6.66 8 7 C8 7.66 8 8.32 8 9 C8.5775 9.2475 9.155 9.495 9.75 9.75 C12.32939979 11.18299988 14.06121592 12.78424676 16 15 C16 15.66 16 16.32 16 17 C16.99 17.33 17.98 17.66 19 18 C20.70884005 19.62339805 22.37446717 21.29319053 24 23 C24.598125 23.556875 25.19625 24.11375 25.8125 24.6875 C27 26 27 26 27 28 C27.556875 28.20625 28.11375 28.4125 28.6875 28.625 C31.24395072 30.14505178 32.68504693 31.97212599 34.51171875 34.28515625 C36.80923202 36.9324222 39.4711633 39.11861905 42.12890625 41.39453125 C44.2011768 43.17261726 46.1844517 44.95750816 48 47 C48 47.66 48 48.32 48 49 C48.66 49 49.32 49 50 49 C50.33 48.34 50.66 47.68 51 47 C51.268125 47.763125 51.53625 48.52625 51.8125 49.3125 C52.95800967 51.90496926 53.99711522 53.08815544 56 55 C56 55.66 56 56.32 56 57 C57.98 57.66 59.96 58.32 62 59 C61.34 60.32 60.68 61.64 60 63 C54.35771738 58.72230594 50.67297656 53.95967577 46.61207199 48.18685532 C32.1912172 27.85772462 13.44913322 5.08836199 -12.11560059 0.04211426 C-38.92225544 -4.48744645 -66.94707776 -2.6387244 -93.96586728 -1.3348248 C-105.663277 -0.78159508 -117.36118597 -0.55312669 -129.06899905 -0.34423232 C-153.0619728 0.09075511 -177.02846193 0.90956455 -201 2 C-201.33 2.99 -201.66 3.98 -202 5 C-202 3.68 -202 2.36 -202 1 C-135.34 0.67 -68.68 0.34 0 0 Z M13 11 C13.66 11 14.32 11 15 11 C15 11.66 15 12.32 15 13 C14.34 13 13.68 13 13 13 C13 12.34 13 11.68 13 11 Z " fill="#B4B4B5" transform="translate(540,246)"/>
<path d="M0 0 C1.66583633 0.02212303 1.66583633 0.02212303 3.36532593 0.04469299 C13.81310444 0.18277899 24.26093892 0.3155146 34.70885277 0.4429636 C40.08068052 0.5086652 45.45247034 0.57627531 50.82421875 0.64819336 C56.00477974 0.71748242 61.18538036 0.78182843 66.36604691 0.84269524 C68.34608834 0.86683731 70.3261086 0.89278384 72.30610275 0.92053413 C75.07171057 0.95899182 77.83732303 0.99112873 80.60302734 1.02172852 C81.42805252 1.03467453 82.2530777 1.04762054 83.10310364 1.06095886 C87.18214737 1.20450798 87.18214737 1.20450798 91 0 C91.495 0.99 91.495 0.99 92 2 C92.66 1.34 93.32 0.68 94 0 C94.495 1.485 94.495 1.485 95 3 C94.67 3.66 94.34 4.32 94 5 C94.99 5.495 94.99 5.495 96 6 C62.01 6 28.02 6 -7 6 C-7 5.67 -7 5.34 -7 5 C-5.02 4.67 -3.04 4.34 -1 4 C-0.67 2.68 -0.34 1.36 0 0 Z " fill="#E4E5E7" transform="translate(511,410)"/>
<path d="M0 0 C2 2 2 2 2.4375 5.1875 C3.05047666 9.34211958 4.22830477 12.22551886 6 16 C6.33 14.35 6.66 12.7 7 11 C8.98 11 10.96 11 13 11 C13.33 10.01 13.66 9.02 14 8 C15.32 8.33 16.64 8.66 18 9 C7.77 19.23 -2.46 29.46 -13 40 C-13.66 39.67 -14.32 39.34 -15 39 C-14.67 37.68 -14.34 36.36 -14 35 C-13.01 35 -12.02 35 -11 35 C-10.731875 34.236875 -10.46375 33.47375 -10.1875 32.6875 C-9.04204753 30.09516021 -8.23584819 28.69924463 -6 27 C-5.01 27 -4.02 27 -3 27 C-2.731875 26.21625 -2.46375 25.4325 -2.1875 24.625 C-1 22 -1 22 2 20 C0.9275 19.855625 -0.145 19.71125 -1.25 19.5625 C-3.92861978 19.16070703 -6.40389949 18.71616566 -9 18 C-9.70125 17.855625 -10.4025 17.71125 -11.125 17.5625 C-13 17 -13 17 -15 15 C-10.05 10.05 -5.1 5.1 0 0 Z " fill="#242223" transform="translate(461,582)"/>
<path d="M0 0 C3.34638613 2.49198967 4.78809054 3.86981619 5.5625 8 C4.87642343 11.65907504 3.57265686 13.35167676 1 16 C-1.85324437 17.42662219 -3.83454549 17.31033868 -7 17 C-9.69990662 15.20006226 -11.5418865 13.916227 -13 11 C-13.43023798 7.12785818 -13.31669086 5.47503629 -11.125 2.1875 C-7.38821379 -1.65919168 -5.14014211 -1.21969474 0 0 Z " fill="#EEF0EF" transform="translate(636,416)"/>
<path d="M0 0 C4.60497023 0.52131738 6.35033484 1.83485139 9.3125 5.375 C9.79883826 8.62883455 9.40837407 11.28348158 8.3125 14.375 C5.73408536 17.39542858 4.19447317 18.20963003 0.3125 18.9375 C-3.81768381 18.16309054 -5.19551033 16.72138613 -7.6875 13.375 C-8.8125 9.875 -8.8125 9.875 -8.6875 6.375 C-6.3125 3.5 -6.3125 3.5 -3.6875 1.375 C-2.6875 0.375 -2.6875 0.375 0 0 Z " fill="#ECEEED" transform="translate(768.6875,480.625)"/>
<path d="M0 0 C2.875 1.5625 2.875 1.5625 5 4 C6.1659741 8.00803597 6.43240501 10.05282711 4.6875 13.875 C2.81265584 16.23591487 1.94533512 16.88867675 -1.0234375 17.23828125 C-4.78875841 17.35712028 -7.25852967 17.43403141 -10.5625 15.5 C-12.57641782 11.99753422 -12.87555677 8.87856287 -12 5 C-8.62505893 0.09099481 -5.84787119 -0.93983644 0 0 Z " fill="#E9EBEA" transform="translate(732,311)"/>
<path d="M0 0 C3.46145669 0.86536417 4.94931405 2.62635769 6.9375 5.484375 C7.6821324 9.45574781 7.31016878 10.92537183 5.0625 14.296875 C2.32036658 17.1196594 1.52392602 17.43007629 -2.4375 17.796875 C-6.0625 17.484375 -6.0625 17.484375 -8.4375 15.609375 C-11.1189025 12.10292558 -11.58316537 9.91003062 -11.0625 5.484375 C-7.96567477 1.03268873 -5.27078558 -0.35937174 0 0 Z " fill="#E7E9E9" transform="translate(826.0625,600.515625)"/>
<path d="M0 0 C3.57909747 0.87857121 4.98058413 2.44045084 6.94140625 5.4765625 C7.31708608 8.39530583 6.97471803 10.72680503 5.94140625 13.4765625 C3.22126302 16.67673101 1.57025803 17.36426754 -2.55859375 18.1015625 C-6.05859375 17.4765625 -6.05859375 17.4765625 -8.99609375 14.8515625 C-11.2467764 11.16862725 -11.95285591 9.67959464 -11.05859375 5.4765625 C-7.96681573 1.03213159 -5.26743385 -0.37981496 0 0 Z " fill="#EDECEE" transform="translate(731.05859375,651.5234375)"/>
<path d="M0 0 C3.375 2.125 3.375 2.125 6 5 C6.6937386 8.69993918 6.27296546 10.44166155 4.625 13.8125 C2.80593265 16.26124451 1.95493911 16.85436257 -1.0234375 17.30859375 C-3.46229948 17.44228552 -5.59490234 17.44349319 -8 17 C-11.30792756 13.77083262 -11.98300322 11.98581321 -12.0625 7.375 C-10.15134629 1.30427644 -6.29372675 -1.15599063 0 0 Z " fill="#ECEDEC" transform="translate(635,547)"/>
<path d="M0 0 C4.09572746 0.7313799 5.76688993 1.48996198 8.5 4.625 C9.6659741 8.63303597 9.93240501 10.67782711 8.1875 14.5 C6.5 16.625 6.5 16.625 4.5 17.625 C-2.41289199 18.07099303 -2.41289199 18.07099303 -5.9375 16.625 C-8.34584213 13.54232208 -8.90839752 10.42954533 -8.5 6.625 C-6.71022845 2.55733739 -4.42898172 0.79088959 0 0 Z " fill="#EAECEB" transform="translate(823.5,361.375)"/>
<path d="M0 0 C1.32 0.33 2.64 0.66 4 1 C-6.23 11.23 -16.46 21.46 -27 32 C-27.66 31.67 -28.32 31.34 -29 31 C-28.67 29.68 -28.34 28.36 -28 27 C-27.01 27 -26.02 27 -25 27 C-24.731875 26.236875 -24.46375 25.47375 -24.1875 24.6875 C-23.04204753 22.09516021 -22.23584819 20.69924463 -20 19 C-19.01 19 -18.02 19 -17 19 C-16.773125 18.21625 -16.54625 17.4325 -16.3125 16.625 C-15 14 -15 14 -12.375 12.6875 C-11.199375 12.3471875 -11.199375 12.3471875 -10 12 C-10 11.01 -10 10.02 -10 9 C-9.34 8.67 -8.68 8.34 -8 8 C-7.34444881 5.47266765 -7.34444881 5.47266765 -7 3 C-5.02 3 -3.04 3 -1 3 C-0.67 2.01 -0.34 1.02 0 0 Z " fill="#312F31" transform="translate(475,590)"/>
<path d="M0 0 C3.0831351 1.19899698 6.06279492 2.47700477 9 4 C8.01 4.66 7.02 5.32 6 6 C7.32 6 8.64 6 10 6 C10.33 5.01 10.66 4.02 11 3 C11 3.99 11 4.98 11 6 C45.32 6 79.64 6 115 6 C115 6.33 115 6.66 115 7 C100.74423671 7.11684888 86.48854777 7.20466303 72.23240376 7.25906086 C65.61285621 7.2851676 58.99363011 7.32058665 52.37426758 7.37719727 C45.98761518 7.43147661 39.6012722 7.46141242 33.21440697 7.47438622 C30.77628902 7.48363327 28.33818822 7.50169041 25.9002018 7.52865028 C22.48818841 7.56488465 19.07745767 7.56994745 15.6652832 7.56762695 C14.14937592 7.59459152 14.14937592 7.59459152 12.60284424 7.62210083 C7.85299306 7.58708775 5.71246267 7.54234365 1.8334198 4.58952332 C0 2 0 2 0 0 Z " fill="#181818" transform="translate(589,322)"/>
<path d="M0 0 C4.16943993 0.93599672 5.58410733 1.37616099 8 5 C7.8616853 8.80365414 7.49915469 11.25126797 5.375 14.4375 C2.16093309 16.5520177 -0.23521325 16.28959898 -4 16 C-3.34 15.67 -2.68 15.34 -2 15 C-1.27306096 13.02111039 -0.60183749 11.02045442 0 9 C-0.99 8.34 -1.98 7.68 -3 7 C-3.375 4.5 -3.375 4.5 -3 2 C-2.01 1.34 -1.02 0.68 0 0 Z " fill="#F2F4F4" transform="translate(730,312)"/>
<path d="M0 0 C1.65 0 3.3 0 5 0 C5.25 5.625 5.25 5.625 3 9 C3.33 9.66 3.66 10.32 4 11 C1.77109005 12.11445498 0.46944894 12.16480286 -2 12.1875 C-3.051875 12.20876953 -3.051875 12.20876953 -4.125 12.23046875 C-6 12 -6 12 -8 10 C-7.625 7.5625 -7.625 7.5625 -7 5 C-7 4.01 -7 3.02 -7 2 C-4 1 -4 1 -1 2 C-0.67 1.34 -0.34 0.68 0 0 Z " fill="#EFF1F0" transform="translate(826,367)"/>
<path d="M0 0 C0.66 0.66 1.32 1.32 2 2 C1.625 4.125 1.625 4.125 1 6 C0.01 6 -0.98 6 -2 6 C-2.495 6.66 -2.99 7.32 -3.5 8 C-3.995 8.66 -4.49 9.32 -5 10 C-5.99 10 -6.98 10 -8 10 C-8 10.99 -8 11.98 -8 13 C-8.99 13.66 -9.98 14.32 -11 15 C-11.99 16.485 -11.99 16.485 -13 18 C-13.99 18 -14.98 18 -16 18 C-16 18.99 -16 19.98 -16 21 C-16.99 21.66 -17.98 22.32 -19 23 C-20.20450304 25.55183404 -20.20450304 25.55183404 -21 28 C-21.99 28 -22.98 28 -24 28 C-24.28875 28.639375 -24.5775 29.27875 -24.875 29.9375 C-26 32 -26 32 -28 33 C-28.6592865 31.19476318 -28.6592865 31.19476318 -29 29 C-28.01930237 27.41802979 -28.01930237 27.41802979 -26.45141602 25.88378906 C-25.87073868 25.30348938 -25.29006134 24.7231897 -24.69178772 24.12530518 C-24.05228683 23.51161072 -23.41278595 22.89791626 -22.75390625 22.265625 C-22.108806 21.62759949 -21.46370575 20.98957397 -20.79905701 20.33221436 C-18.73161652 18.29280998 -16.64748956 16.27144473 -14.5625 14.25 C-13.15967502 12.87224568 -11.75796706 11.49335302 -10.35742188 10.11328125 C-6.9177806 6.72883194 -3.46307147 3.36046428 0 0 Z " fill="#302F30" transform="translate(525,620)"/>
<path d="M0 0 C2.4375 0.6875 2.4375 0.6875 5 2 C6.20660899 4.56404411 6.25027172 6.19078811 5.4140625 8.89453125 C4.88335381 10.26859386 4.33478275 11.63587667 3.76953125 12.99609375 C2.76344432 15.61600541 2.34704323 18.22365419 2 21 C1.01 21.33 0.02 21.66 -1 22 C-2.29914639 17.38081284 -1.77764428 13.66586566 -1 9 C-0.67 8.67 -0.34 8.34 0 8 C-0.99 7.34 -1.98 6.68 -3 6 C-2.34 5.67 -1.68 5.34 -1 5 C-0.34444881 2.47266765 -0.34444881 2.47266765 0 0 Z " fill="#ECEEED" transform="translate(179,423)"/>
<path d="M0 0 C5.56701031 -0.37113402 5.56701031 -0.37113402 7.75 1.5 C8.36875 2.2425 8.36875 2.2425 9 3 C9.66 3 10.32 3 11 3 C11.3125 6.25 11.3125 6.25 11 10 C8.75 12.4375 8.75 12.4375 6 14 C4.68 14 3.36 14 2 14 C2 13.01 2 12.02 2 11 C1.34 11 0.68 11 0 11 C0 10.34 0 9.68 0 9 C0.66 9 1.32 9 2 9 C2.33 8.34 2.66 7.68 3 7 C3.33 7 3.66 7 4 7 C4 6.01 4 5.02 4 4 C3.34 3.67 2.68 3.34 2 3 C2 2.34 2 1.68 2 1 C1.34 0.67 0.68 0.34 0 0 Z " fill="#F5F7F6" transform="translate(821,604)"/>
<path d="M0 0 C1.8177574 3.36408496 3.02239629 6.79917974 4.1875 10.4375 C4.55230469 11.54996094 4.91710937 12.66242187 5.29296875 13.80859375 C6.00509385 17.0229927 5.91641411 18.87718758 5 22 C4.01 22 3.02 22 2 22 C1.34 20.02 0.68 18.04 0 16 C-0.33 17.32 -0.66 18.64 -1 20 C-1.66 19.67 -2.32 19.34 -3 19 C-2.75636719 17.93845703 -2.75636719 17.93845703 -2.5078125 16.85546875 C-1.99037785 13.94589394 -1.86694442 11.26487098 -1.875 8.3125 C-1.87242187 7.35988281 -1.86984375 6.40726563 -1.8671875 5.42578125 C-1.83929591 2.99003502 -1.83929591 2.99003502 -3 1 C-2.01 0.67 -1.02 0.34 0 0 Z " fill="#E8EAE9" transform="translate(179,533)"/>
<path d="M0 0 C2.9375 2.1875 2.9375 2.1875 5 5 C5.3125 8.3125 5.3125 8.3125 5 11 C4.34 11 3.68 11 3 11 C3 9.68 3 8.36 3 7 C2.01 6.67 1.02 6.34 0 6 C-0.33 5.34 -0.66 4.68 -1 4 C-2.32 4.99 -3.64 5.98 -5 7 C-5.12375 6.195625 -5.2475 5.39125 -5.375 4.5625 C-5.58125 3.716875 -5.7875 2.87125 -6 2 C-6.66 1.67 -7.32 1.34 -8 1 C-8.33 2.98 -8.66 4.96 -9 7 C-9.66 7 -10.32 7 -11 7 C-11 8.32 -11 9.64 -11 11 C-11.66 11 -12.32 11 -13 11 C-13.35671933 7.16526716 -13.29771416 5.44657125 -11.125 2.1875 C-7.38821379 -1.65919168 -5.14014211 -1.21969474 0 0 Z " fill="#E1E2E1" transform="translate(636,416)"/>
<path d="M0 0 C0.75175507 -0.00014603 1.50351013 -0.00029205 2.27804565 -0.0004425 C4.75074193 0.00025144 7.22336189 0.00801949 9.69604492 0.01586914 C11.41525735 0.01773516 13.13447032 0.0191582 14.85368347 0.02015686 C19.36967446 0.02396753 23.88563309 0.03378542 28.40161133 0.04486084 C33.01342328 0.05510615 37.62524048 0.05966116 42.23706055 0.06469727 C51.27939244 0.07540901 60.32170036 0.09246799 69.36401367 0.11352539 C69.85901367 1.10352539 69.85901367 1.10352539 70.36401367 2.11352539 C69.41632111 2.11130478 68.46862854 2.10908417 67.49221802 2.10679626 C58.57485953 2.0865523 49.65750569 2.07154718 40.74012947 2.06171322 C36.15527516 2.05648759 31.57043936 2.04939572 26.9855957 2.03808594 C22.5635955 2.02724573 18.14161314 2.02124614 13.71960068 2.01864815 C12.02985224 2.01679595 10.3401048 2.01317925 8.65036392 2.00779533 C6.28942989 2.00056988 3.9285702 1.99953509 1.56762695 2 C0.86416138 1.99640472 0.1606958 1.99280945 -0.56408691 1.98910522 C-4.22317698 1.95016516 -4.22317698 1.95016516 -7.63598633 3.11352539 C-9.31253362 2.83410084 -10.98206787 2.50524292 -12.63598633 2.11352539 C-12.63598633 1.78352539 -12.63598633 1.45352539 -12.63598633 1.11352539 C-8.40935238 0.0835777 -4.32405477 -0.02214458 0 0 Z " fill="#DFE1E0" transform="translate(364.635986328125,369.886474609375)"/>
<path d="M0 0 C0.99 0 1.98 0 3 0 C3.33 0.99 3.66 1.98 4 3 C3.34 3 2.68 3 2 3 C1.7834375 3.8971875 1.7834375 3.8971875 1.5625 4.8125 C0.63667025 8.41294901 -0.13641427 10.59458798 -3 13 C-3.66 13 -4.32 13 -5 13 C-4.690625 13.928125 -4.690625 13.928125 -4.375 14.875 C-4.25125 15.57625 -4.1275 16.2775 -4 17 C-4.66 17.66 -5.32 18.32 -6 19 C-6.66 18.34 -7.32 17.68 -8 17 C-7.68117979 12.66556334 -5.77373375 9.40018552 -3.625 5.6875 C-2.71621094 4.08455078 -2.71621094 4.08455078 -1.7890625 2.44921875 C-1.19867188 1.64097656 -0.60828125 0.83273437 0 0 Z " fill="#272727" transform="translate(154,381)"/>
<path d="M0 0 C-1.61010527 4.07376031 -4.53822271 6.76507069 -7.625 9.75 C-8.140625 10.25660156 -8.65625 10.76320313 -9.1875 11.28515625 C-10.45383339 12.52803902 -11.7263144 13.76465276 -13 15 C-14.31223496 11.06329512 -13.24296256 8.87511856 -12 5 C-10.02 5 -8.04 5 -6 5 C-6.33 3.68 -6.66 2.36 -7 1 C-2.25 0 -2.25 0 0 0 Z " fill="#E3E4E4" transform="translate(552,692)"/>
<path d="M0 0 C0.99 0.66 1.98 1.32 3 2 C3.40843923 4.71203652 3.13336867 7.2437142 3 10 C-0.3125 10.1875 -0.3125 10.1875 -4 10 C-4.99 9.01 -5.98 8.02 -7 7 C-4.69 4.69 -2.38 2.38 0 0 Z " fill="#2B292A" transform="translate(469,574)"/>
<path d="M0 0 C1.32 0 2.64 0 4 0 C4.66 0.99 5.32 1.98 6 3 C7.299375 3.7734375 7.299375 3.7734375 8.625 4.5625 C9.40875 5.036875 10.1925 5.51125 11 6 C11 6.66 11 7.32 11 8 C11.66 8 12.32 8 13 8 C13 8.99 13 9.98 13 11 C13.66 11 14.32 11 15 11 C15.33 11.99 15.66 12.98 16 14 C10.04750017 11.2097657 4.2868498 7.00132476 0 2 C0 1.34 0 0.68 0 0 Z " fill="#F0F0F0" transform="translate(290,576)"/>
<path d="M0 0 C2.76223278 2.76223278 2.57856291 5.20706617 3 9 C-1.05431692 10.15837626 -3.21812119 9.83691257 -7 8 C-6.02133662 6.85373678 -5.04205413 5.70800212 -4.0625 4.5625 C-3.51722656 3.92441406 -2.97195313 3.28632812 -2.41015625 2.62890625 C-1.63204305 1.73008851 -0.84063472 0.84063472 0 0 Z " fill="#292929" transform="translate(445,598)"/>
<path d="M0 0 C2.39456443 2.39456443 2.75546876 3.65807308 3 7 C1.875 8.875 1.875 8.875 0 10 C-3.34192692 9.75546876 -4.60543557 9.39456443 -7 7 C-4.69 4.69 -2.38 2.38 0 0 Z " fill="#2C2A2B" transform="translate(453,590)"/>
<path d="M0 0 C0.66 0 1.32 0 2 0 C1.45276317 3.37462715 0.9451 5.08235 -1 8 C-6.89473684 10 -6.89473684 10 -10 10 C-10 9.34 -10 8.68 -10 8 C-9.34 8 -8.68 8 -8 8 C-8 7.34 -8 6.68 -8 6 C-8.66 5.67 -9.32 5.34 -10 5 C-9.34 4.67 -8.68 4.34 -8 4 C-5.375 4.9375 -5.375 4.9375 -3 6 C-2.690625 5.195625 -2.38125 4.39125 -2.0625 3.5625 C-1 1 -1 1 0 0 Z " fill="#E7E9E8" transform="translate(283,710)"/>
<path d="M0 0 C1 4 1 4 0.3515625 6.203125 C-1 8 -1 8 -3.1640625 8.609375 C-3.97617187 8.65578125 -4.78828125 8.7021875 -5.625 8.75 C-6.44226563 8.80671875 -7.25953125 8.8634375 -8.1015625 8.921875 C-8.72804688 8.94765625 -9.35453125 8.9734375 -10 9 C-10.33 8.34 -10.66 7.68 -11 7 C-7.37 4.69 -3.74 2.38 0 0 Z " fill="#EAEBED" transform="translate(411,542)"/>
<path d="M0 0 C4.84659077 0.59104765 8.60748167 1.97944157 13 4 C13 5.32 13 6.64 13 8 C8.25981099 6.16508812 3.63586749 4.08058541 -1 2 C-0.67 1.34 -0.34 0.68 0 0 Z " fill="#E3E5E5" transform="translate(392,425)"/>
<path d="M0 0 C1.32 0 2.64 0 4 0 C4 0.66 4 1.32 4 2 C4.99 2 5.98 2 7 2 C7 2.66 7 3.32 7 4 C5.25 5.5078125 5.25 5.5078125 3 7.125 C2.2575 7.66382813 1.515 8.20265625 0.75 8.7578125 C0.1725 9.16773438 -0.405 9.57765625 -1 10 C-1.66 9.34 -2.32 8.68 -3 8 C-2.67 7.01 -2.34 6.02 -2 5 C-1.34 4.67 -0.68 4.34 0 4 C0 2.68 0 1.36 0 0 Z " fill="#282627" transform="translate(291,392)"/>
<path d="M0 0 C2.0625 1.5625 2.0625 1.5625 4 4 C3.93541482 7.68135499 3.78095253 10.03161886 1.4375 12.9375 C0.963125 13.288125 0.48875 13.63875 0 14 C-0.125 8.25 -0.125 8.25 1 6 C0.34 6 -0.32 6 -1 6 C-1.33 5.01 -1.66 4.02 -2 3 C-1.34 2.01 -0.68 1.02 0 0 Z " fill="#E9EBEA" transform="translate(734,313)"/>
<path d="M0 0 C2.625 0.375 2.625 0.375 5 1 C3.59155282 4.21524305 1.89655214 6.32183868 -0.625 8.75 C-1.57246094 9.67039062 -1.57246094 9.67039062 -2.5390625 10.609375 C-3.02117188 11.06828125 -3.50328125 11.5271875 -4 12 C-4.66 11.34 -5.32 10.68 -6 10 C-4.625 8.5 -4.625 8.5 -3 7 C-2.34 7 -1.68 7 -1 7 C-1.309375 5.824375 -1.309375 5.824375 -1.625 4.625 C-1.74875 3.75875 -1.8725 2.8925 -2 2 C-1.34 1.34 -0.68 0.68 0 0 Z " fill="#E3E4E5" transform="translate(587,651)"/>
<path d="M0 0 C0.3125 3.25 0.3125 3.25 0 7 C-2.375 9.4375 -2.375 9.4375 -5 11 C-5.66 11 -6.32 11 -7 11 C-7 10.01 -7 9.02 -7 8 C-6.34 8 -5.68 8 -5 8 C-5 6.68 -5 5.36 -5 4 C-5 3.34 -5 2.68 -5 2 C-2 0 -2 0 0 0 Z " fill="#EEEFEF" transform="translate(832,607)"/>
<path d="M0 0 C0.763125 0.0825 1.52625 0.165 2.3125 0.25 C1.82019231 6.65 1.82019231 6.65 -0.75 9.6875 C-1.7090625 10.4609375 -1.7090625 10.4609375 -2.6875 11.25 C-2.6875 9.27 -2.6875 7.29 -2.6875 5.25 C-3.6775 4.92 -4.6675 4.59 -5.6875 4.25 C-3.34903846 0.31153846 -3.34903846 0.31153846 0 0 Z " fill="#E7E7E7" transform="translate(309.6875,676.75)"/>
<path d="M0 0 C0 0.33 0 0.66 0 1 C-1.65 1 -3.3 1 -5 1 C-5 1.99 -5 2.98 -5 4 C-5.66 4 -6.32 4 -7 4 C-7 4.66 -7 5.32 -7 6 C-6.34 6.33 -5.68 6.66 -5 7 C-5.78375 7.28875 -6.5675 7.5775 -7.375 7.875 C-10.09671632 8.84912254 -10.09671632 8.84912254 -12 11 C-11.76435605 6.91550495 -11.59037881 4.65785068 -8.8125 1.5625 C-5.58823227 -0.22875985 -3.63195497 -0.33785628 0 0 Z " fill="#D6D8D7" transform="translate(772,481)"/>
<path d="M0 0 C2.31 0 4.62 0 7 0 C6.62403791 2.78211944 6.32681541 4.5879284 4.5625 6.8125 C3 8 3 8 1 8 C-1 5 -1 5 -0.625 2.3125 C-0.41875 1.549375 -0.2125 0.78625 0 0 Z " fill="#EBECED" transform="translate(154,368)"/>
<path d="M0 0 C0 0.66 0 1.32 0 2 C-1.42578125 3.40234375 -1.42578125 3.40234375 -3.3125 4.9375 C-5.66350211 6.86463171 -7.88235135 8.81719293 -10 11 C-10.33 9.02 -10.66 7.04 -11 5 C-10.01 4.67 -9.02 4.34 -8 4 C-7.360625 3.319375 -6.72125 2.63875 -6.0625 1.9375 C-4 0 -4 0 0 0 Z " fill="#E5E6E7" transform="translate(755,466)"/>
<path d="M0 0 C0.33 0.66 0.66 1.32 1 2 C1.66 2.33 2.32 2.66 3 3 C2.01 3 1.02 3 0 3 C0 3.66 0 4.32 0 5 C-0.99 5.495 -0.99 5.495 -2 6 C-2.72159424 7.64363134 -3.39351421 9.31050386 -4 11 C-4.99 11 -5.98 11 -7 11 C-7.33 10.01 -7.66 9.02 -8 8 C-6.85546875 6.2109375 -6.85546875 6.2109375 -5.1875 4.375 C-4.64480469 3.76398438 -4.10210938 3.15296875 -3.54296875 2.5234375 C-2 1 -2 1 0 0 Z " fill="#2C2B2C" transform="translate(809,348)"/>
<path d="M0 0 C0.33 1.65 0.66 3.3 1 5 C-0.45817797 5.16802051 -1.9165484 5.33437143 -3.375 5.5 C-4.59316406 5.63921875 -4.59316406 5.63921875 -5.8359375 5.78125 C-8 6 -8 6 -10 6 C-9 3 -9 3 -6.6875 1.3125 C-4 0 -4 0 0 0 Z " fill="#28272A" transform="translate(279,265)"/>
<path d="M0 0 C1.32 0 2.64 0 4 0 C4.96846689 2.61486062 5.04559628 3.8442127 4.25 6.5625 C3.0490965 8.90426182 1.92041559 10.24657707 0 12 C-0.33 12.66 -0.66 13.32 -1 14 C-1.66 14 -2.32 14 -3 14 C-1.96774255 10.90322764 -0.93289252 7.81633741 0.1875 4.75 C1.319329 2.07005946 1.319329 2.07005946 0 0 Z " fill="#2E2D2E" transform="translate(240,636)"/>
<path d="M0 0 C0 0.99 0 1.98 0 3 C-2.81227622 3.93742541 -4.58746844 4.13470844 -7.5 4.125 C-8.2734375 4.12757813 -9.046875 4.13015625 -9.84375 4.1328125 C-12.75350867 3.95358823 -15.24217277 2.91927574 -18 2 C-16.15410368 0.15410368 -13.17518841 0.61183189 -10.6875 0.4375 C-8.96080078 0.31181641 -8.96080078 0.31181641 -7.19921875 0.18359375 C-4.80264201 0.04606126 -2.40051979 0 0 0 Z " fill="#D8D9D9" transform="translate(740,345)"/>
<path d="M0 0 C0.33 0.99 0.66 1.98 1 3 C-2.67387495 3.85298376 -6.0447393 4.10789471 -9.8125 4.0625 C-11.27623047 4.04896484 -11.27623047 4.04896484 -12.76953125 4.03515625 C-13.87361328 4.01775391 -13.87361328 4.01775391 -15 4 C-15 3.67 -15 3.34 -15 3 C-13.02 2.67 -11.04 2.34 -9 2 C-9.33 1.34 -9.66 0.68 -10 0 C-6.30581799 -1.231394 -3.7943739 -0.64432764 0 0 Z " fill="#2D2B2C" transform="translate(737,683)"/>
<path d="M0 0 C0.66 0.33 1.32 0.66 2 1 C1.67 2.32 1.34 3.64 1 5 C0.34 5 -0.32 5 -1 5 C-1 6.32 -1 7.64 -1 9 C-1.66 9 -2.32 9 -3 9 C-3 9.66 -3 10.32 -3 11 C-3.99 10.67 -4.98 10.34 -6 10 C-5.58578031 5.16743695 -3.53586014 3.17320782 0 0 Z " fill="#272727" transform="translate(616,402)"/>
<path d="M0 0 C2 1 2 1 2 1 Z M-2 1 C-1.34 1 -0.68 1 0 1 C0 1.66 0 2.32 0 3 C1.98 2.34 3.96 1.68 6 1 C4.60667426 4.36720387 3.0210714 5.9859524 0 8 C-0.99 7.34 -1.98 6.68 -3 6 C-2.67 4.35 -2.34 2.7 -2 1 Z " fill="#E4E4E4" transform="translate(564,673)"/>
<path d="M0 0 C0.66 1.32 1.32 2.64 2 4 C-4.14285714 9.57142857 -4.14285714 9.57142857 -9 10 C-8.06409496 8.8944811 -7.12620142 7.79064547 -6.1875 6.6875 C-5.66542969 6.07261719 -5.14335938 5.45773437 -4.60546875 4.82421875 C-3.12827531 3.14575321 -1.59960869 1.56117966 0 0 Z " fill="#302F31" transform="translate(545,600)"/>
<path d="M0 0 C0 1.65 0 3.3 0 5 C-3.96 5 -7.92 5 -12 5 C-12 4.67 -12 4.34 -12 4 C-10.35 3.67 -8.7 3.34 -7 3 C-7 2.34 -7 1.68 -7 1 C-7.66 0.67 -8.32 0.34 -9 0 C-5.62182575 -0.84454356 -3.32534757 -1.10844919 0 0 Z " fill="#DCDEDD" transform="translate(832,578)"/>
<path d="M0 0 C0 0.33 0 0.66 0 1 C-2.31 1 -4.62 1 -7 1 C-7 1.66 -7 2.32 -7 3 C-13.6 3 -20.2 3 -27 3 C-27 2.67 -27 2.34 -27 2 C-24.18814406 1.66027199 -21.37571764 1.32809788 -18.5625 1 C-17.3878418 0.85691406 -17.3878418 0.85691406 -16.18945312 0.7109375 C-10.75624381 0.08488869 -5.46925737 -0.08759571 0 0 Z " fill="#414242" transform="translate(179,452)"/>
<path d="M0 0 C0 1.32 0 2.64 0 4 C-2.31 3.67 -4.62 3.34 -7 3 C-7.33 4.32 -7.66 5.64 -8 7 C-9.32 7 -10.64 7 -12 7 C-13.75 5 -13.75 5 -15 3 C-14.31292969 2.86722656 -13.62585938 2.73445313 -12.91796875 2.59765625 C-11.56638672 2.33275391 -11.56638672 2.33275391 -10.1875 2.0625 C-8.84751953 1.80146484 -8.84751953 1.80146484 -7.48046875 1.53515625 C-0.3649635 0 -0.3649635 0 0 0 Z " fill="#E1E2E4" transform="translate(645,448)"/>
<path d="M0 0 C5.12228881 2.83073855 6.95005755 5.58229496 9 11 C8.01 11 7.02 11 6 11 C2.55813601 7.47618687 0.44556134 5.04969516 0 0 Z " fill="#2B292B" transform="translate(704,328)"/>
<path d="M0 0 C0.185625 0.9590625 0.185625 0.9590625 0.375 1.9375 C0.684375 2.9584375 0.684375 2.9584375 1 4 C1.66 4.33 2.32 4.66 3 5 C1.68 8.63 0.36 12.26 -1 16 C-3.31323995 12.53014008 -3.03975162 11.01711296 -2.42578125 7.0078125 C-1.89999623 4.52842261 -1.07459989 2.29247976 0 0 Z " fill="#E6E8E8" transform="translate(310,456)"/>
<path d="M0 0 C-1.24176695 0.70226141 -2.49385599 1.38629109 -3.75 2.0625 C-4.79414063 2.63677734 -4.79414063 2.63677734 -5.859375 3.22265625 C-8.36140628 4.1312406 -9.5332355 3.88336837 -12 3 C-11.375 1.0625 -11.375 1.0625 -10 -1 C-5.81538569 -2.27357827 -3.74488856 -2.0913014 0 0 Z " fill="#E9EAEA" transform="translate(262,274)"/>
<path d="M0 0 C1.65 0.33 3.3 0.66 5 1 C3.8905928 4.48670834 2.73662334 7.77484237 1 11 C0.34 11 -0.32 11 -1 11 C-0.814375 10.2575 -0.62875 9.515 -0.4375 8.75 C-0.00158134 6.00993984 -0.28005547 4.60979891 -1 2 C-0.67 1.34 -0.34 0.68 0 0 Z " fill="#E8E8EA" transform="translate(237,637)"/>
<path d="M0 0 C2 1 2 1 4 4 C2.90081184 4.98475214 1.7954398 5.96260473 0.6875 6.9375 C-0.23482422 7.75541016 -0.23482422 7.75541016 -1.17578125 8.58984375 C-3 10 -3 10 -6 11 C-5.45156876 7.16098132 -3.7234735 5.63836495 -1 3 C-0.67 2.01 -0.34 1.02 0 0 Z " fill="#2C292C" transform="translate(746,333)"/>
<path d="M0 0 C0.99 0.99 1.98 1.98 3 3 C2.67 3.66 2.34 4.32 2 5 C1.01 5 0.02 5 -1 5 C-1.33 6.98 -1.66 8.96 -2 11 C-2.33 10.34 -2.66 9.68 -3 9 C-5.02463255 8.34786708 -5.02463255 8.34786708 -7 8 C-6.01 8 -5.02 8 -4 8 C-3.71125 7.05125 -3.4225 6.1025 -3.125 5.125 C-2 2 -2 2 0 0 Z " fill="#2A2829" transform="translate(708,643)"/>
<path d="M0 0 C0.33 0.99 0.66 1.98 1 3 C-5.52940894 5.95671348 -10.87399867 6.35368021 -18 6 C-18 5.67 -18 5.34 -18 5 C-14.7 5 -11.4 5 -8 5 C-8 4.34 -8 3.68 -8 3 C-2.25 0 -2.25 0 0 0 Z " fill="#4D4D4E" transform="translate(644,577)"/>
<path d="M0 0 C1.093125 0.226875 2.18625 0.45375 3.3125 0.6875 C2.3225 1.1825 2.3225 1.1825 1.3125 1.6875 C1.3125 3.3375 1.3125 4.9875 1.3125 6.6875 C-4.4375 4.9375 -4.4375 4.9375 -6.6875 2.6875 C-4.58035839 -0.41123767 -3.86755884 -0.32775922 0 0 Z " fill="#2B292A" transform="translate(348.6875,545.3125)"/>
<path d="M0 0 C-1.5830577 4.2742558 -4.50568404 6.26531794 -8 9 C-8.33 7.02 -8.66 5.04 -9 3 C-2.25 0 -2.25 0 0 0 Z " fill="#DEDEE0" transform="translate(562,682)"/>
<path d="M0 0 C0.66 0.99 1.32 1.98 2 3 C1.00200236 6.99199058 -0.55799862 8.82006579 -4 11 C-4.66 10.34 -5.32 9.68 -6 9 C-5.34 9 -4.68 9 -4 9 C-4 7.68 -4 6.36 -4 5 C-3.34 5 -2.68 5 -2 5 C-1.855625 4.360625 -1.71125 3.72125 -1.5625 3.0625 C-1 1 -1 1 0 0 Z " fill="#2A282A" transform="translate(846,379)"/>
<path d="M0 0 C3.40320742 1.01176437 4.75725331 1.64843582 6.8125 4.625 C7.204375 5.40875 7.59625 6.1925 8 7 C7.34 7 6.68 7 6 7 C5.67 7.66 5.34 8.32 5 9 C4.67 8.01 4.34 7.02 4 6 C3.34 6 2.68 6 2 6 C2 5.01 2 4.02 2 3 C1.01 3.33 0.02 3.66 -1 4 C-0.67 2.68 -0.34 1.36 0 0 Z " fill="#2D2B2D" transform="translate(744,299)"/>
<path d="M0 0 C1.65 0.33 3.3 0.66 5 1 C3.50902342 4.7952131 1.24299151 6.61042731 -2 9 C-2 5.20442119 -1.49821059 3.37097383 0 0 Z " fill="#272527" transform="translate(597,666)"/>
<path d="M0 0 C0.66 0.66 1.32 1.32 2 2 C1.67 2.33 1.34 2.66 1 3 C1.66 3.66 2.32 4.32 3 5 C-1.43076923 7.09230769 -1.43076923 7.09230769 -4.3125 6.625 C-4.869375 6.41875 -5.42625 6.2125 -6 6 C-6 5.01 -6 4.02 -6 3 C-4.02 2.67 -2.04 2.34 0 2 C0 1.34 0 0.68 0 0 Z " fill="#292B2A" transform="translate(182,632)"/>
<path d="M0 0 C1.32 0 2.64 0 4 0 C2.77946141 3.66161578 1.63217696 4.16270474 -1.5625 6.1875 C-2.38878906 6.71730469 -3.21507812 7.24710938 -4.06640625 7.79296875 C-4.70449219 8.19128906 -5.34257812 8.58960938 -6 9 C-5.49396008 6.83125748 -5.00016187 5.00032373 -4 3 C-3.01 3 -2.02 3 -1 3 C-0.67 2.01 -0.34 1.02 0 0 Z " fill="#E4E6E5" transform="translate(169,561)"/>
<path d="M0 0 C-0.99 0.495 -0.99 0.495 -2 1 C-2 1.66 -2 2.32 -2 3 C-6.62 2.34 -11.24 1.68 -16 1 C-16 0.67 -16 0.34 -16 0 C-5.62642369 -2.66514806 -5.62642369 -2.66514806 0 0 Z " fill="#E8E9EA" transform="translate(742,292)"/>
<path d="M0 0 C0.33 0.66 0.66 1.32 1 2 C1.66 2 2.32 2 3 2 C3 1.34 3 0.68 3 0 C4.32 0 5.64 0 7 0 C5.60667426 3.36720387 4.0210714 4.9859524 1 7 C0.01 6.01 -0.98 5.02 -2 4 C-1.34 4 -0.68 4 0 4 C0 2.68 0 1.36 0 0 Z " fill="#252627" transform="translate(577,685)"/>
<path d="M0 0 C0.93423645 3.01031744 1.04449911 3.86650268 0 7 C0.99 6.67 1.98 6.34 3 6 C3.66 8.31 4.32 10.62 5 13 C4.01 13.495 4.01 13.495 3 14 C1.10931758 11.08784151 -0.6542729 8.20615459 -2 5 C-1.3125 1.9375 -1.3125 1.9375 0 0 Z " fill="#2A2829" transform="translate(705,664)"/>
<path d="M0 0 C0.66 0.33 1.32 0.66 2 1 C1.01 2.485 1.01 2.485 0 4 C0.99 4.66 1.98 5.32 3 6 C-3.75 7.125 -3.75 7.125 -6 6 C-5 3 -5 3 -2.5625 1.25 C-1.716875 0.8375 -0.87125 0.425 0 0 Z " fill="#2C2A2B" transform="translate(249,280)"/>
<path d="M0 0 C1.875 0.3125 1.875 0.3125 4 1 C6 4 6 4 7 7 C3.00095031 7 1.19799578 5.27413033 -2 3 C-1.34 2.01 -0.68 1.02 0 0 Z " fill="#E2E3E5" transform="translate(743,634)"/>
<path d="M0 0 C0.33 0.99 0.66 1.98 1 3 C1.99 3 2.98 3 4 3 C4.33 2.34 4.66 1.68 5 1 C6.125 6.625 6.125 6.625 5 10 C1.32769295 6.92000054 0.43197635 4.7517398 0 0 Z " fill="#EAEAEA" transform="translate(266,544)"/>
<path d="M0 0 C0.33 0 0.66 0 1 0 C1 2.31 1 4.62 1 7 C3.475 7.99 3.475 7.99 6 9 C6.33 8.34 6.66 7.68 7 7 C7.66 7.66 8.32 8.32 9 9 C8.01 9.99 7.02 10.98 6 12 C3.53199953 10.84826645 1.95216435 9.95216435 0 8 C-0.26991906 5.31160615 -0.08737357 2.70858064 0 0 Z " fill="#D3D5D4" transform="translate(720,316)"/>
<path d="M0 0 C-1.39332574 3.36720387 -2.9789286 4.9859524 -6 7 C-6 6.34 -6 5.68 -6 5 C-6.99 5 -7.98 5 -9 5 C-8.3125 3.0625 -8.3125 3.0625 -7 1 C-4.56968481 0.27090544 -2.52838375 0 0 0 Z " fill="#E0E1E2" transform="translate(578,666)"/>
<path d="M0 0 C0 0.99 0 1.98 0 3 C-1.8125 4.0625 -1.8125 4.0625 -4 5 C-4.99 4.67 -5.98 4.34 -7 4 C-7.33 3.01 -7.66 2.02 -8 1 C-4.93251126 -0.86240388 -3.40254489 -1.2151946 0 0 Z " fill="#EAEBEC" transform="translate(216,625)"/>
<path d="M0 0 C3.21462343 1.65601813 4.87387056 4.20512267 7.0625 7.0625 C6.4025 7.7225 5.7425 8.3825 5.0625 9.0625 C4.546875 8.0725 4.03125 7.0825 3.5 6.0625 C2.695625 5.0725 1.89125 4.0825 1.0625 3.0625 C-2.60607722 2.56124717 -2.60607722 2.56124717 -5.9375 3.0625 C-2.60148929 0.08391901 -2.60148929 0.08391901 0 0 Z " fill="#E6E5E6" transform="translate(222.9375,619.9375)"/>
<path d="M0 0 C0.66 0.33 1.32 0.66 2 1 C2 4.27275026 1.70074844 6.846632 1 10 C0.34 9.34 -0.32 8.68 -1 8 C-3.10820797 8.3185177 -3.10820797 8.3185177 -5 9 C-3.7508258 5.54074837 -2.32472205 2.85306797 0 0 Z " fill="#E1E3E3" transform="translate(357,474)"/>
<path d="M0 0 C0.66 0.33 1.32 0.66 2 1 C1.34 2.98 0.68 4.96 0 7 C-0.66 7 -1.32 7 -2 7 C-2 8.32 -2 9.64 -2 11 C-2.66 11 -3.32 11 -4 11 C-4.36630156 7.06225823 -4.30233203 5.43460229 -2 2.125 C-1.34 1.42375 -0.68 0.7225 0 0 Z " fill="#D8D8D8" transform="translate(627,416)"/>
<path d="M0 0 C2.475 0.99 2.475 0.99 5 2 C5 2.66 5 3.32 5 4 C2.6875 5.6875 2.6875 5.6875 0 7 C-0.99 6.67 -1.98 6.34 -3 6 C-2.01 4.02 -1.02 2.04 0 0 Z " fill="#E9E8EA" transform="translate(224,289)"/>
<path d="M0 0 C0.99 0.33 1.98 0.66 3 1 C3.33 1.99 3.66 2.98 4 4 C2.68 4.99 1.36 5.98 0 7 C0 5.68 0 4.36 0 3 C-3.16666667 4.83333333 -3.16666667 4.83333333 -5 8 C-4.66275164 4.88045262 -4.3790035 3.3790035 -2.125 1.125 C-1.42375 0.75375 -0.7225 0.3825 0 0 Z " fill="#262626" transform="translate(558,705)"/>
<path d="M0 0 C-2.31 2.31 -4.62 4.62 -7 7 C-7.66 6.67 -8.32 6.34 -9 6 C-8.67 5.01 -8.34 4.02 -8 3 C-7.34 3 -6.68 3 -6 3 C-6 2.01 -6 1.02 -6 0 C-4 -1 -4 -1 0 0 Z " fill="#333335" transform="translate(487,583)"/>
<path d="M0 0 C1.32 1.32 2.64 2.64 4 4 C3.67 4.99 3.34 5.98 3 7 C1.02 7.33 -0.96 7.66 -3 8 C-3 7.34 -3 6.68 -3 6 C-1.35 6 0.3 6 2 6 C2 5.34 2 4.68 2 4 C1.071875 4.309375 1.071875 4.309375 0.125 4.625 C-0.57625 4.74875 -1.2775 4.8725 -2 5 C-2.66 4.34 -3.32 3.68 -4 3 C-2.68 2.01 -1.36 1.02 0 0 Z " fill="#E7E7E9" transform="translate(650,575)"/>
<path d="M0 0 C1.32 0.33 2.64 0.66 4 1 C1.69 3.31 -0.62 5.62 -3 8 C-3.66 7.67 -4.32 7.34 -5 7 C-4.67 5.68 -4.34 4.36 -4 3 C-3.01 3 -2.02 3 -1 3 C-0.67 2.01 -0.34 1.02 0 0 Z " fill="#333333" transform="translate(499,566)"/>
<path d="M0 0 C3.96 0 7.92 0 12 0 C12 0.66 12 1.32 12 2 C3.42857143 3.28571429 3.42857143 3.28571429 0 2 C0 1.34 0 0.68 0 0 Z " fill="#323031" transform="translate(626,529)"/>
<path d="M0 0 C3.82946843 1.45255699 5.12050295 3.42895561 7 7 C6.01 7.33 5.02 7.66 4 8 C3.67 7.34 3.34 6.68 3 6 C2.34 6 1.68 6 1 6 C1 5.34 1 4.68 1 4 C0.34 3.67 -0.32 3.34 -1 3 C-0.67 2.01 -0.34 1.02 0 0 Z " fill="#E2E2E4" transform="translate(314,525)"/>
<path d="M0 0 C0.66 0.66 1.32 1.32 2 2 C2.99 2 3.98 2 5 2 C4.67 2.33 4.34 2.66 4 3 C4.66 3.66 5.32 4.32 6 5 C4.02 5.99 4.02 5.99 2 7 C0 5.625 0 5.625 -2 4 C-2 3.34 -2 2.68 -2 2 C-1.34 2 -0.68 2 0 2 C0 1.34 0 0.68 0 0 Z " fill="#2B282A" transform="translate(754,507)"/>
<path d="M0 0 C3.00333458 1.50166729 4.69233155 2.36847002 6.1875 5.4375 C6.455625 6.283125 6.72375 7.12875 7 8 C7.65213539 9.34050052 8.31379969 10.67661368 9 12 C6.50776013 11.00310405 5.23583098 10.38477686 3.8125 8.0625 C3.15554392 6.39484226 2.56680452 4.70041355 2 3 C1.34 2.67 0.68 2.34 0 2 C0 1.34 0 0.68 0 0 Z " fill="#1A1A1B" transform="translate(568,298)"/>
<path d="M0 0 C2.91517292 1.07401108 4.77810176 1.77810176 7 4 C3.71303767 4.79953138 2.28976808 5.09658936 -1 4 C-1.99 4 -2.98 4 -4 4 C-2.68 2.68 -1.36 1.36 0 0 Z " fill="#EAEBEB" transform="translate(244,697)"/>
<path d="M0 0 C2.97 0.495 2.97 0.495 6 1 C5.125 4.875 5.125 4.875 4 6 C1.1007774 5.53238345 0.13324818 5.13324818 -2 3 C-1.34 3 -0.68 3 0 3 C0 2.01 0 1.02 0 0 Z " fill="#E4E6E6" transform="translate(328,682)"/>
<path d="M0 0 C0.66 1.32 1.32 2.64 2 4 C0.68 5.32 -0.64 6.64 -2 8 C-2.99 7.01 -3.98 6.02 -5 5 C-3.35 3.35 -1.7 1.7 0 0 Z M-4 8 C-3.34 8 -2.68 8 -2 8 C-2.33 8.66 -2.66 9.32 -3 10 C-3.33 9.34 -3.66 8.68 -4 8 Z " fill="#2E2D2E" transform="translate(491,654)"/>
<path d="M0 0 C2.62187494 1.04874998 3.79371361 1.64931313 5.25 4.125 C5.4975 4.74375 5.745 5.3625 6 6 C5.01 6.495 5.01 6.495 4 7 C3.34 6.67 2.68 6.34 2 6 C2 5.34 2 4.68 2 4 C1.34 4 0.68 4 0 4 C-0.33 4.66 -0.66 5.32 -1 6 C-1.042721 4.33388095 -1.04063832 2.66617115 -1 1 C-0.67 0.67 -0.34 0.34 0 0 Z " fill="#E9E9EB" transform="translate(610,573)"/>
<path d="M0 0 C2.38564077 0.57584432 4.66682784 1.22227595 7 2 C7.33 2.99 7.66 3.98 8 5 C7.01 5.99 6.02 6.98 5 8 C4.16382818 6.8562364 3.33113541 5.70992861 2.5 4.5625 C2.0359375 3.92441406 1.571875 3.28632812 1.09375 2.62890625 C0 1 0 1 0 0 Z " fill="#E6E6E7" transform="translate(271,555)"/>
<path d="M0 0 C-0.33 0.33 -0.66 0.66 -1 1 C-0.34 1.33 0.32 1.66 1 2 C1 3.32 1 4.64 1 6 C-1.91517292 4.92598892 -3.77810176 4.22189824 -6 2 C-6 1.34 -6 0.68 -6 0 C-3 -1 -3 -1 0 0 Z " fill="#292A2A" transform="translate(257,698)"/>
<path d="M0 0 C0 3.63053243 -1.2278255 4.95750337 -3.5546875 7.63671875 C-5.49136818 9.46347972 -7.46012234 10.27432067 -10 11 C-6.79239749 7.19364503 -3.59253891 3.45436433 0 0 Z " fill="#E3E3E4" transform="translate(591,679)"/>
<path d="M0 0 C1.32 1.65 2.64 3.3 4 5 C3.01 5.495 3.01 5.495 2 6 C1.67 6.66 1.34 7.32 1 8 C0.01 7.67 -0.98 7.34 -2 7 C-2.125 4.625 -2.125 4.625 -2 2 C-1.34 1.34 -0.68 0.68 0 0 Z " fill="#E3E5E5" transform="translate(148,588)"/>
<path d="M0 0 C0.99 0.99 1.98 1.98 3 3 C2.360625 3.28875 1.72125 3.5775 1.0625 3.875 C-1.15206079 4.82823451 -1.15206079 4.82823451 -2 7 C-3.32 7.33 -4.64 7.66 -6 8 C-4.02 5.36 -2.04 2.72 0 0 Z " fill="#333033" transform="translate(324,444)"/>
<path d="M0 0 C-0.33 0.99 -0.66 1.98 -1 3 C-3.31 3.33 -5.62 3.66 -8 4 C-8.33 3.34 -8.66 2.68 -9 2 C-8.01 2 -7.02 2 -6 2 C-6.33 1.34 -6.66 0.68 -7 0 C-4.3333581 -1.33332095 -2.83319697 -0.67102033 0 0 Z " fill="#EBEBEC" transform="translate(723,346)"/>
<path d="M0 0 C0 0.66 0 1.32 0 2 C-0.7115625 2.6496875 -0.7115625 2.6496875 -1.4375 3.3125 C-3.41383086 5.44693733 -3.61663236 7.16307947 -4 10 C-5.32 9.34 -6.64 8.68 -8 8 C-3.45945946 0 -3.45945946 0 0 0 Z " fill="#333133" transform="translate(714,298)"/>
<path d="M0 0 C0.33 0.66 0.66 1.32 1 2 C0.22265625 3.7265625 0.22265625 3.7265625 -0.9375 5.625 C-1.618125 6.73875 -2.29875 7.8525 -3 9 C-4.98 9 -6.96 9 -9 9 C-8.2575 8.443125 -7.515 7.88625 -6.75 7.3125 C-4.08292005 5.06972822 -2.08443768 2.77925025 0 0 Z " fill="#E3E3E3" transform="translate(751,675)"/>
<path d="M0 0 C2 1 2 1 2 1 Z M-2 1 C-1.34 1 -0.68 1 0 1 C0 1.66 0 2.32 0 3 C0.66 3.33 1.32 3.66 2 4 C1.67 5.32 1.34 6.64 1 8 C-0.32 7.34 -1.64 6.68 -3 6 C-2.67 4.35 -2.34 2.7 -2 1 Z " fill="#E9E9E9" transform="translate(580,657)"/>
<path d="M0 0 C0 0.66 0 1.32 0 2 C-0.99 2 -1.98 2 -3 2 C-3.28875 2.639375 -3.5775 3.27875 -3.875 3.9375 C-5 6 -5 6 -7 7 C-7.6875 5.1875 -7.6875 5.1875 -8 3 C-5.85915306 -0.33020635 -3.75910189 -0.30479204 0 0 Z " fill="#2B292A" transform="translate(504,646)"/>
<path d="M0 0 C0.99 0.33 1.98 0.66 3 1 C2.34 3.31 1.68 5.62 1 8 C0.34 7.67 -0.32 7.34 -1 7 C-1 6.34 -1 5.68 -1 5 C-1.66 5 -2.32 5 -3 5 C-1.125 1.125 -1.125 1.125 0 0 Z " fill="#EAEBED" transform="translate(172,632)"/>
<path d="M0 0 C1.65 0 3.3 0 5 0 C3.60667426 3.36720387 2.0210714 4.9859524 -1 7 C-1.33 6.01 -1.66 5.02 -2 4 C-1.34 4 -0.68 4 0 4 C0 2.68 0 1.36 0 0 Z " fill="#ECECEC" transform="translate(804,585)"/>
<path d="M0 0 C0.33 0.66 0.66 1.32 1 2 C1.99 2.33 2.98 2.66 4 3 C3.34 3 2.68 3 2 3 C2 3.66 2 4.32 2 5 C2.66 5.33 3.32 5.66 4 6 C1.39417629 6.93065133 0.35801776 7.14917407 -2.25 6.0625 C-2.8275 5.711875 -3.405 5.36125 -4 5 C-2.68 3.35 -1.36 1.7 0 0 Z " fill="#2A2A2A" transform="translate(185,552)"/>
<path d="M0 0 C0 0.66 0 1.32 0 2 C-4.455 3.485 -4.455 3.485 -9 5 C-9 4.01 -9 3.02 -9 2 C-5.86501708 0.14223235 -3.62528568 -0.20140476 0 0 Z " fill="#292829" transform="translate(402,547)"/>
<path d="M0 0 C0.66 0.99 1.32 1.98 2 3 C1.34 3.66 0.68 4.32 0 5 C0.3185177 7.10820797 0.3185177 7.10820797 1 9 C0.01 9 -0.98 9 -2 9 C-2 8.34 -2 7.68 -2 7 C-2.99 6.67 -3.98 6.34 -5 6 C-3.35 4.02 -1.7 2.04 0 0 Z " fill="#DEDDDE" transform="translate(655,437)"/>
<path d="M0 0 C-1.26391488 1.00873016 -2.53640883 2.00671822 -3.8125 3 C-4.87404297 3.8353125 -4.87404297 3.8353125 -5.95703125 4.6875 C-8 6 -8 6 -11 6 C-10.67 5.34 -10.34 4.68 -10 4 C-9.34 4 -8.68 4 -8 4 C-8 3.01 -8 2.02 -8 1 C-4.85571151 -0.9090323 -3.47925125 -1.04523725 0 0 Z " fill="#E5E5E5" transform="translate(621,400)"/>
<path d="M0 0 C0.33 0.66 0.66 1.32 1 2 C2.97888961 2.72693904 4.97954558 3.39816251 7 4 C6.34 5.32 5.68 6.64 5 8 C2.69 6.02 0.38 4.04 -2 2 C-1.34 1.34 -0.68 0.68 0 0 Z " fill="#DFE2E2" transform="translate(595,301)"/>
<path d="M0 0 C0.33 1.32 0.66 2.64 1 4 C1.99 4 2.98 4 4 4 C4 6.31 4 8.62 4 11 C2.68 10.67 1.36 10.34 0 10 C0 6.7 0 3.4 0 0 Z " fill="#E3E5E4" transform="translate(330,286)"/>
<path d="M0 0 C-1.32 1.32 -2.64 2.64 -4 4 C-6.475 3.01 -6.475 3.01 -9 2 C-9 1.34 -9 0.68 -9 0 C-5.93109813 -1.53445094 -3.29905734 -0.54984289 0 0 Z " fill="#28282A" transform="translate(272,706)"/>
<path d="M0 0 C0 0.66 0 1.32 0 2 C-7.75 1.25 -7.75 1.25 -10 -1 C-6.18510326 -2.46726798 -3.70988378 -1.43336419 0 0 Z " fill="#2A2829" transform="translate(728,636)"/>
<path d="M0 0 C0.66 0.66 1.32 1.32 2 2 C1.34 2 0.68 2 0 2 C-0.12375 2.78375 -0.2475 3.5675 -0.375 4.375 C-1 7 -1 7 -3 9 C-3.66 8.67 -4.32 8.34 -5 8 C-3.8141763 4.62496331 -2.72426311 2.35277269 0 0 Z " fill="#2B292A" transform="translate(805,590)"/>
<path d="M0 0 C2.31 0.33 4.62 0.66 7 1 C7 1.99 7 2.98 7 4 C7.66 4 8.32 4 9 4 C9.33 4.99 9.66 5.98 10 7 C6.42032008 5.34784004 3.22017048 3.26875648 0 1 C0 0.67 0 0.34 0 0 Z " fill="#DCDCDC" transform="translate(296,583)"/>
<path d="M0 0 C0.66 1.32 1.32 2.64 2 4 C0.35 5.32 -1.3 6.64 -3 8 C-3.66 7.67 -4.32 7.34 -5 7 C-3.70700306 4.11562221 -2.34058637 2.12780579 0 0 Z " fill="#E6E6E7" transform="translate(418,536)"/>
<path d="M0 0 C0.66 1.32 1.32 2.64 2 4 C-0.57784846 6.64752004 -2.91648098 8.94432065 -6 11 C-4.18690997 7.22272911 -2.0926741 3.62730178 0 0 Z " fill="#DEDCDE" transform="translate(429,521)"/>
<path d="M0 0 C4.875 4.625 4.875 4.625 6 8 C3.69 8 1.38 8 -1 8 C-0.34 7.34 0.32 6.68 1 6 C0.67 5.67 0.34 5.34 0 5 C-0.04063832 3.33382885 -0.042721 1.66611905 0 0 Z " fill="#292728" transform="translate(761,494)"/>
<path d="M0 0 C1.17539996 0.92652701 2.34010577 1.86663387 3.5 2.8125 C4.1496875 3.33457031 4.799375 3.85664063 5.46875 4.39453125 C7 6 7 6 7 9 C5.8225266 8.26708288 4.65823146 7.51296199 3.5 6.75 C2.52546875 6.12351562 2.52546875 6.12351562 1.53125 5.484375 C1.0259375 4.99453125 0.520625 4.5046875 0 4 C0 2.68 0 1.36 0 0 Z " fill="#29292A" transform="translate(414,440)"/>
<path d="M0 0 C-0.99 1.485 -0.99 1.485 -2 3 C-3.9453125 3.29296875 -3.9453125 3.29296875 -6.125 3.1875 C-7.40375 3.125625 -8.6825 3.06375 -10 3 C-4.375 -1.3125 -4.375 -1.3125 0 0 Z " fill="#303032" transform="translate(354,428)"/>
<path d="M0 0 C2.625 0.375 2.625 0.375 5 1 C4.34 1.66 3.68 2.32 3 3 C3.99 4.485 3.99 4.485 5 6 C2 6 2 6 -0.1875 4 C-0.785625 3.34 -1.38375 2.68 -2 2 C-1.34 1.34 -0.68 0.68 0 0 Z " fill="#2A2C2B" transform="translate(178,417)"/>
<path d="M0 0 C0.66 0.33 1.32 0.66 2 1 C1.67 1.99 1.34 2.98 1 4 C-5.93 3.505 -5.93 3.505 -13 3 C-13 2.67 -13 2.34 -13 2 C-12.22914063 1.93941406 -11.45828125 1.87882812 -10.6640625 1.81640625 C-9.15972656 1.69072266 -9.15972656 1.69072266 -7.625 1.5625 C-6.62726562 1.48128906 -5.62953125 1.40007812 -4.6015625 1.31640625 C-2.02072387 1.15034374 -2.02072387 1.15034374 0 0 Z " fill="#CED0D1" transform="translate(834,395)"/>
<path d="M0 0 C0.99 0.33 1.98 0.66 3 1 C1.35 2.98 -0.3 4.96 -2 7 C-2.99 6.34 -3.98 5.68 -5 5 C-3.35 3.35 -1.7 1.7 0 0 Z " fill="#DDDEDD" transform="translate(535,706)"/>
<path d="M0 0 C1.65 0.33 3.3 0.66 5 1 C4.34 2.65 3.68 4.3 3 6 C1.68 5.34 0.36 4.68 -1 4 C-0.67 2.68 -0.34 1.36 0 0 Z " fill="#2C2B2C" transform="translate(223,680)"/>
<path d="M0 0 C0.66 0 1.32 0 2 0 C1.65120368 3.25543229 0.97866739 4.01873107 -1.5625 6.25 C-2.366875 6.8275 -3.17125 7.405 -4 8 C-4.33 7.01 -4.66 6.02 -5 5 C-4.34 5 -3.68 5 -3 5 C-2.67 4.01 -2.34 3.02 -2 2 C-1.34 1.34 -0.68 0.68 0 0 Z " fill="#303031" transform="translate(527,640)"/>
<path d="M0 0 C1.65 0 3.3 0 5 0 C5.66 1.98 6.32 3.96 7 6 C4.69 5.01 2.38 4.02 0 3 C0 2.01 0 1.02 0 0 Z " fill="#E7E8E8" transform="translate(794,618)"/>
<path d="M0 0 C-1 2 -1 2 -3.25 3.1875 C-6.30248582 4.08937081 -7.97734454 3.86361585 -11 3 C-4.33333333 -1.44444444 -4.33333333 -1.44444444 0 0 Z " fill="#DFDFDF" transform="translate(400,551)"/>
<path d="M0 0 C0.86625 0.3403125 0.86625 0.3403125 1.75 0.6875 C1.09 1.3475 0.43 2.0075 -0.25 2.6875 C2.72 3.1825 2.72 3.1825 5.75 3.6875 C5.75 4.0175 5.75 4.3475 5.75 4.6875 C4.3129191 4.74172947 2.87524538 4.78039723 1.4375 4.8125 C0.63699219 4.83570313 -0.16351563 4.85890625 -0.98828125 4.8828125 C-3.25 4.6875 -3.25 4.6875 -6.25 2.6875 C-2.80384615 -0.38942308 -2.80384615 -0.38942308 0 0 Z " fill="#DFE1E0" transform="translate(158.25,449.3125)"/>
<path d="M0 0 C2.4375 0.375 2.4375 0.375 5 1 C5.33 1.66 5.66 2.32 6 3 C3 5 3 5 0.8125 4.625 C0.214375 4.41875 -0.38375 4.2125 -1 4 C-0.67 2.68 -0.34 1.36 0 0 Z " fill="#E7E8EA" transform="translate(148,401)"/>
<path d="M0 0 C0.66 0.33 1.32 0.66 2 1 C0.95125002 3.62187494 0.35068687 4.79371361 -2.125 6.25 C-2.74375 6.4975 -3.3625 6.745 -4 7 C-4.66 6.34 -5.32 5.68 -6 5 C-4.02 3.35 -2.04 1.7 0 0 Z " fill="#E0DFE0" transform="translate(300,393)"/>
<path d="M0 0 C0.66 0.33 1.32 0.66 2 1 C2 2.32 2 3.64 2 5 C-1.21428571 8 -1.21428571 8 -4 8 C-2.87548273 5.0280615 -1.77706209 2.66559313 0 0 Z " fill="#2C2B2C" transform="translate(170,354)"/>
<path d="M0 0 C1.5625 1.75 1.5625 1.75 3 4 C2.6875 6.25 2.6875 6.25 2 8 C1.01 8 0.02 8 -1 8 C-1.04241723 5.66705225 -1.04092937 3.33297433 -1 1 C-0.67 0.67 -0.34 0.34 0 0 Z " fill="#E6E6E6" transform="translate(227,309)"/>
<path d="M0 0 C0.33 0.99 0.66 1.98 1 3 C-1 5 -1 5 -4 6 C-4.66 6.66 -5.32 7.32 -6 8 C-6.33 6.68 -6.66 5.36 -7 4 C-4.69 2.68 -2.38 1.36 0 0 Z " fill="#2A292A" transform="translate(229,292)"/>
<path d="M0 0 C-0.99 0.495 -0.99 0.495 -2 1 C-2.33 1.66 -2.66 2.32 -3 3 C-5.31 2.34 -7.62 1.68 -10 1 C-6.1496895 -1.56687367 -4.41430237 -0.83288724 0 0 Z " fill="#282728" transform="translate(739,635)"/>
<path d="M0 0 C0.99 0.33 1.98 0.66 3 1 C3.875 2.875 3.875 2.875 4 5 C2.5625 6.75 2.5625 6.75 1 8 C0.01 5.69 -0.98 3.38 -2 1 C-1.34 0.67 -0.68 0.34 0 0 Z " fill="#262729" transform="translate(172,624)"/>
<path d="M0 0 C1.32 1.32 2.64 2.64 4 4 C3.34 5.32 2.68 6.64 2 8 C1.34 7.67 0.68 7.34 0 7 C-1.26229508 2.52459016 -1.26229508 2.52459016 0 0 Z " fill="#2A2829" transform="translate(844,592)"/>
<path d="M0 0 C0.33 0.99 0.66 1.98 1 3 C1.99 3.33 2.98 3.66 4 4 C3.01 4.99 2.02 5.98 1 7 C-0.65 5.35 -2.3 3.7 -4 2 C-2.68 1.34 -1.36 0.68 0 0 Z " fill="#E6E4E7" transform="translate(843,585)"/>
<path d="M0 0 C2.52588702 2.36292656 3.88820837 3.66462511 5 7 C3.02 7.99 3.02 7.99 1 9 C0.29925156 5.846632 0 3.27275026 0 0 Z " fill="#272727" transform="translate(265,547)"/>
<path d="M0 0 C1.0326802 2.78823655 1.04509293 3.8677274 0.0625 6.75 C-0.288125 7.4925 -0.63875 8.235 -1 9 C-1.66 9 -2.32 9 -3 9 C-2.4140625 2.84765625 -2.4140625 2.84765625 -2 1 C-1.34 0.67 -0.68 0.34 0 0 Z " fill="#E6E7E6" transform="translate(184,426)"/>
<path d="M0 0 C0.66 0.66 1.32 1.32 2 2 C1.625 4.125 1.625 4.125 1 6 C0.401875 5.690625 -0.19625 5.38125 -0.8125 5.0625 C-3.08956772 3.89790296 -3.08956772 3.89790296 -6 3 C-4 2 -2 1 0 0 Z " fill="#E9E9E9" transform="translate(285,410)"/>
<path d="M0 0 C3 2 3 2 3.6875 4.125 C3.790625 4.74375 3.89375 5.3625 4 6 C2.35 6.33 0.7 6.66 -1 7 C-2 4 -2 4 -1.0625 1.8125 C-0.5365625 0.9153125 -0.5365625 0.9153125 0 0 Z " fill="#2A2829" transform="translate(162,367)"/>
<path d="M0 0 C0.99 1.32 1.98 2.64 3 4 C-0.11771927 5.60339848 -1.39011689 6.18974141 -4.8125 5.125 C-5.534375 4.75375 -6.25625 4.3825 -7 4 C-3.25 2 -3.25 2 -1 2 C-0.67 1.34 -0.34 0.68 0 0 Z " fill="#E2E4E3" transform="translate(187,338)"/>
<path d="M0 0 C0.66 0.66 1.32 1.32 2 2 C2 1.34 2 0.68 2 0 C2.99 0.33 3.98 0.66 5 1 C4.67 2.98 4.34 4.96 4 7 C2.66666667 7 1.33333333 7 0 7 C0 4.69 0 2.38 0 0 Z " fill="#F6F9F8" transform="translate(721,316)"/>
<path d="M0 0 C0 4.35251187 -2.06165511 5.92809398 -5 9 C-7.171875 9.6796875 -7.171875 9.6796875 -9 10 C-8.06409496 8.8944811 -7.12620142 7.79064547 -6.1875 6.6875 C-5.66542969 6.07261719 -5.14335938 5.45773437 -4.60546875 4.82421875 C-3.12827531 3.14575321 -1.59960869 1.56117966 0 0 Z " fill="#DEDEDF" transform="translate(561,709)"/>
<path d="M0 0 C0.66 0.66 1.32 1.32 2 2 C1.625 4.125 1.625 4.125 1 6 C-2 6 -2 6 -5 5 C-3.35 3.35 -1.7 1.7 0 0 Z " fill="#323031" transform="translate(533,612)"/>
<path d="M0 0 C1.9375 0.375 1.9375 0.375 4 1 C5.35439668 3.70879335 5.06501451 6.00933268 5 9 C4.67 9 4.34 9 4 9 C4 7.35 4 5.7 4 4 C2.35 4.33 0.7 4.66 -1 5 C-0.34 4.67 0.32 4.34 1 4 C0.67 2.68 0.34 1.36 0 0 Z " fill="#D4D5D5" transform="translate(828,603)"/>
<path d="M0 0 C0.28875 0.61875 0.5775 1.2375 0.875 1.875 C1.93720042 4.13325765 1.93720042 4.13325765 4 6 C4.125 8.625 4.125 8.625 4 11 C1.11670417 7.744666 -0.63331529 5.40021656 -1 1 C-0.67 0.67 -0.34 0.34 0 0 Z " fill="#2A2C2B" transform="translate(147,581)"/>
<path d="M0 0 C0.99 0 1.98 0 3 0 C3 2.31 3 4.62 3 7 C0.525 6.01 0.525 6.01 -2 5 C-1.34 3.35 -0.68 1.7 0 0 Z " fill="#2B2C2E" transform="translate(316,454)"/>
<path d="M0 0 C1.65 1.65 3.3 3.3 5 5 C3.35 5.33 1.7 5.66 0 6 C-0.66 5.01 -1.32 4.02 -2 3 C-1.34 2.01 -0.68 1.02 0 0 Z " fill="#D9DBDA" transform="translate(611,441)"/>
<path d="M0 0 C3.465 1.485 3.465 1.485 7 3 C3.25 6 3.25 6 1 6 C1 5.01 1 4.02 1 3 C0.34 2.34 -0.32 1.68 -1 1 C-0.67 0.67 -0.34 0.34 0 0 Z " fill="#E6E7E9" transform="translate(341,425)"/>
<path d="M0 0 C1.32 0.33 2.64 0.66 4 1 C2.68 3.31 1.36 5.62 0 8 C-0.99 7.34 -1.98 6.68 -3 6 C-3 5.34 -3 4.68 -3 4 C-2.34 3.67 -1.68 3.34 -1 3 C-0.67 2.01 -0.34 1.02 0 0 Z " fill="#E1E1E1" transform="translate(799,354)"/>
<path d="M0 0 C0.66 0.33 1.32 0.66 2 1 C2 1.99 2 2.98 2 4 C-0.60582371 4.93065133 -1.64198224 5.14917407 -4.25 4.0625 C-4.8275 3.711875 -5.405 3.36125 -6 3 C-4.03533587 1.93224776 -2.03144641 0.93446535 0 0 Z " fill="#2D2B2C" transform="translate(262,273)"/>
<path d="M0 0 C4.875 4.75 4.875 4.75 6 7 C4.35 7 2.7 7 1 7 C0.67 4.69 0.34 2.38 0 0 Z " fill="#EBEBEB" transform="translate(707,676)"/>
<path d="M0 0 C1.32 1.32 2.64 2.64 4 4 C3.01 4.99 2.02 5.98 1 7 C0.01 6.01 -0.98 5.02 -2 4 C-1.34 3.67 -0.68 3.34 0 3 C0 2.01 0 1.02 0 0 Z " fill="#2B292A" transform="translate(746,640)"/>
<path d="M0 0 C2.375 0.1875 2.375 0.1875 5 1 C6.3125 3.5625 6.3125 3.5625 7 6 C4 6 4 6 1.8125 4.125 C0 2 0 2 0 0 Z " fill="#2C2C2E" transform="translate(232,627)"/>
<path d="M0 0 C0.66 0.33 1.32 0.66 2 1 C0.625 2.5 0.625 2.5 -1 4 C-1.66 4 -2.32 4 -3 4 C-3.33 4.99 -3.66 5.98 -4 7 C-4.33 5.35 -4.66 3.7 -5 2 C-2.625 0.9375 -2.625 0.9375 0 0 Z " fill="#262527" transform="translate(531,617)"/>
<path d="M0 0 C2.79872437 2.52788007 4.45773019 4.20411134 5 8 C4.01 8.33 3.02 8.66 2 9 C1.34 6.03 0.68 3.06 0 0 Z " fill="#E6E4E5" transform="translate(160,610)"/>
<path d="M0 0 C0.66 0.33 1.32 0.66 2 1 C-0.97 3.475 -0.97 3.475 -4 6 C-4.33 4.68 -4.66 3.36 -5 2 C-2.625 0.9375 -2.625 0.9375 0 0 Z " fill="#272526" transform="translate(539,609)"/>
<path d="M0 0 C0.99 0.33 1.98 0.66 3 1 C4.1875 3.5625 4.1875 3.5625 5 6 C4.38125 5.814375 3.7625 5.62875 3.125 5.4375 C0.95839822 4.76313824 0.95839822 4.76313824 -1 6 C-0.67 4.02 -0.34 2.04 0 0 Z " fill="#E8E7E9" transform="translate(154,601)"/>
<path d="M0 0 C1.32 0.33 2.64 0.66 4 1 C0.535 3.97 0.535 3.97 -3 7 C-3 6.01 -3 5.02 -3 4 C-2.34 4 -1.68 4 -1 4 C-0.67 2.68 -0.34 1.36 0 0 Z " fill="#383537" transform="translate(491,574)"/>
<path d="M0 0 C4.75 0.75 4.75 0.75 7 3 C6.67 3.66 6.34 4.32 6 5 C4.35 4.67 2.7 4.34 1 4 C0.67 2.68 0.34 1.36 0 0 Z " fill="#EDEBEE" transform="translate(753,513)"/>
<path d="M0 0 C1.32 0.33 2.64 0.66 4 1 C2.515 3.475 2.515 3.475 1 6 C0.01 5.01 -0.98 4.02 -2 3 C-1.34 2.01 -0.68 1.02 0 0 Z " fill="#E5E7E6" transform="translate(147,387)"/>
<path d="M0 0 C0.66 0 1.32 0 2 0 C1.38461538 6.52307692 1.38461538 6.52307692 -0.5625 8.9375 C-1.036875 9.288125 -1.51125 9.63875 -2 10 C-1.33333333 6.66666667 -0.66666667 3.33333333 0 0 Z " fill="#D6D6D6" transform="translate(736,317)"/>
<path d="M0 0 C-0.33 2.31 -0.66 4.62 -1 7 C-1.33 5.68 -1.66 4.36 -2 3 C-3.32 3 -4.64 3 -6 3 C-6 2.34 -6 1.68 -6 1 C-4 0 -4 0 0 0 Z " fill="#252626" transform="translate(336,680)"/>
<path d="M0 0 C1.125 3.75 1.125 3.75 0 6 C-1.32 6 -2.64 6 -4 6 C-3.6875 4.125 -3.6875 4.125 -3 2 C-2.01 1.34 -1.02 0.68 0 0 Z " fill="#E1E1E3" transform="translate(411,542)"/>
<path d="M0 0 C3.25543229 0.34879632 4.01873107 1.02133261 6.25 3.5625 C6.8275 4.366875 7.405 5.17125 8 6 C7.01 6 6.02 6 5 6 C4.34 4.68 3.68 3.36 3 2 C2.01 2 1.02 2 0 2 C0 1.34 0 0.68 0 0 Z " fill="#E4E5E5" transform="translate(744,505)"/>
<path d="M0 0 C1.65 0.33 3.3 0.66 5 1 C4.34 2.32 3.68 3.64 3 5 C1.68 4.67 0.36 4.34 -1 4 C-0.67 2.68 -0.34 1.36 0 0 Z " fill="#E2E3E5" transform="translate(621,449)"/>
<path d="M0 0 C2.4375 0.75 2.4375 0.75 5 2 C5.8125 4.125 5.8125 4.125 6 6 C3.5625 5.25 3.5625 5.25 1 4 C0.1875 1.875 0.1875 1.875 0 0 Z " fill="#2D302F" transform="translate(616,443)"/>
<path d="M0 0 C2 3 2 3 1.625 5.6875 C1.41875 6.450625 1.2125 7.21375 1 8 C0.34 8 -0.32 8 -1 8 C-1.625 5.6875 -1.625 5.6875 -2 3 C-1.34 2.01 -0.68 1.02 0 0 Z " fill="#2F2D2E" transform="translate(259,440)"/>
<path d="M0 0 C2.475 0.99 2.475 0.99 5 2 C4.67 3.32 4.34 4.64 4 6 C2.02 4.68 0.04 3.36 -2 2 C-1.34 1.34 -0.68 0.68 0 0 Z " fill="#E5E3E4" transform="translate(407,432)"/>
<path d="M0 0 C2 1 2 1 3 3 C-0.13498292 4.85776765 -2.37471432 5.20140476 -6 5 C-5.195625 4.360625 -4.39125 3.72125 -3.5625 3.0625 C-1.7249496 1.59396498 -1.7249496 1.59396498 0 0 Z " fill="#DFE0E2" transform="translate(312,385)"/>
<path d="M0 0 C0.66 0 1.32 0 2 0 C1.75 3.375 1.75 3.375 1 7 C-0.98 7.99 -0.98 7.99 -3 9 C-2.01 6.03 -1.02 3.06 0 0 Z " fill="#E4E4E4" transform="translate(831,368)"/>
<path d="M0 0 C0 1.65 0 3.3 0 5 C-0.99 5 -1.98 5 -3 5 C-3.66 3.68 -4.32 2.36 -5 1 C-1.125 0 -1.125 0 0 0 Z " fill="#2D2D2F" transform="translate(543,370)"/>
<path d="M0 0 C3.36720387 1.39332574 4.9859524 2.9789286 7 6 C4 6 4 6 1.8125 4.125 C0 2 0 2 0 0 Z " fill="#DEDCDD" transform="translate(577,313)"/>
<path d="M0 0 C1.32 1.32 2.64 2.64 4 4 C2.02 4.66 0.04 5.32 -2 6 C-2.66 5.34 -3.32 4.68 -4 4 C-2.68 3.34 -1.36 2.68 0 2 C0 1.34 0 0.68 0 0 Z " fill="#EBEBED" transform="translate(718,290)"/>
<path d="M0 0 C3.36720387 1.39332574 4.9859524 2.9789286 7 6 C4 6 4 6 1.8125 4.125 C0 2 0 2 0 0 Z " fill="#DEDCDD" transform="translate(545,281)"/>
<path d="M0 0 C0.33 0 0.66 0 1 0 C1.33 2.97 1.66 5.94 2 9 C0.68 8.67 -0.64 8.34 -2 8 C-1.34 5.36 -0.68 2.72 0 0 Z " fill="#E0E1E3" transform="translate(850,614)"/>
<path d="M0 0 C0.33 0.99 0.66 1.98 1 3 C-0.98 3.99 -0.98 3.99 -3 5 C-3.66 4.34 -4.32 3.68 -5 3 C-2.25 0 -2.25 0 0 0 Z " fill="#E8E8EA" transform="translate(424,532)"/>
<path d="M0 0 C2.31 1.98 4.62 3.96 7 6 C6.34 6.66 5.68 7.32 5 8 C0 2.25 0 2.25 0 0 Z " fill="#3A3B3D" transform="translate(497,408)"/>
<path d="M0 0 C3.36720387 1.39332574 4.9859524 2.9789286 7 6 C4 6 4 6 1.8125 4.125 C0 2 0 2 0 0 Z " fill="#363435" transform="translate(473,385)"/>
<path d="M0 0 C3.36720387 1.39332574 4.9859524 2.9789286 7 6 C4 6 4 6 1.8125 4.125 C0 2 0 2 0 0 Z " fill="#343537" transform="translate(465,377)"/>
<path d="M0 0 C3.36720387 1.39332574 4.9859524 2.9789286 7 6 C4 6 4 6 1.8125 4.125 C0 2 0 2 0 0 Z " fill="#363435" transform="translate(457,369)"/>
<path d="M0 0 C1.98 1.65 3.96 3.3 6 5 C5.01 5.99 4.02 6.98 3 8 C2.67 7.01 2.34 6.02 2 5 C1.34 4.34 0.68 3.68 0 3 C0 2.01 0 1.02 0 0 Z " fill="#373536" transform="translate(526,335)"/>
<path d="M0 0 C3.16115776 1.36983503 3.9927092 1.9890638 6 5 C3.03 4.505 3.03 4.505 0 4 C0 2.68 0 1.36 0 0 Z " fill="#302E2F" transform="translate(508,318)"/>
<path d="M0 0 C0 0.66 0 1.32 0 2 C-2 2.66666667 -4 3.33333333 -6 4 C-6 2.68 -6 1.36 -6 0 C-3.50907189 -1.24546405 -2.58919267 -0.7767578 0 0 Z " fill="#E9EBEA" transform="translate(607,307)"/>
<path d="M0 0 C0.33 1.32 0.66 2.64 1 4 C-0.65 4.66 -2.3 5.32 -4 6 C-4 4.68 -4 3.36 -4 2 C-2.68 1.34 -1.36 0.68 0 0 Z " fill="#282828" transform="translate(255,277)"/>
<path d="M0 0 C-1.39332574 3.36720387 -2.9789286 4.9859524 -6 7 C-5.6875 4.625 -5.6875 4.625 -5 2 C-2 0 -2 0 0 0 Z " fill="#D9DBDC" transform="translate(544,700)"/>
<path d="M0 0 C0.99 0.66 1.98 1.32 3 2 C2 4 2 4 -1 6 C-1.66 5.34 -2.32 4.68 -3 4 C-2.01 2.68 -1.02 1.36 0 0 Z " fill="#E8E9E9" transform="translate(300,687)"/>
<path d="M0 0 C1.3921875 0.3403125 1.3921875 0.3403125 2.8125 0.6875 C2.4825 1.6775 2.1525 2.6675 1.8125 3.6875 C-0.8275 3.3575 -3.4675 3.0275 -6.1875 2.6875 C-4.14987265 -0.14253799 -3.59070275 -0.35202968 0 0 Z " fill="#EAEDEC" transform="translate(716.1875,684.3125)"/>
<path d="M0 0 C3 0 3 0 6 1 C5.34 2.32 4.68 3.64 4 5 C2 3.625 2 3.625 0 2 C0 1.34 0 0.68 0 0 Z " fill="#2D2D2D" transform="translate(497,666)"/>
<path d="M0 0 C0.66 0 1.32 0 2 0 C0.60667426 3.36720387 -0.9789286 4.9859524 -4 7 C-4 6.01 -4 5.02 -4 4 C-2.68 3.34 -1.36 2.68 0 2 C0 1.34 0 0.68 0 0 Z " fill="#D8D8D8" transform="translate(586,656)"/>
<path d="M0 0 C0.99 0.99 1.98 1.98 3 3 C-2.75 4.125 -2.75 4.125 -5 3 C-3.35 2.01 -1.7 1.02 0 0 Z " fill="#292728" transform="translate(216,619)"/>
<path d="M0 0 C-0.99 1.32 -1.98 2.64 -3 4 C-4.32 3.67 -5.64 3.34 -7 3 C-7 2.34 -7 1.68 -7 1 C-3.375 -1.125 -3.375 -1.125 0 0 Z " fill="#2B2B2B" transform="translate(389,427)"/>
<path d="M0 0 C0.99 0 1.98 0 3 0 C3.33 0.99 3.66 1.98 4 3 C3.34 3 2.68 3 2 3 C1.67 3.66 1.34 4.32 1 5 C0.01 5 -0.98 5 -2 5 C-1.34 3.35 -0.68 1.7 0 0 Z " fill="#2E2F30" transform="translate(154,381)"/>
<path d="M0 0 C3.16115776 1.36983503 3.9927092 1.9890638 6 5 C3 5 3 5 1.3125 3.625 C0 2 0 2 0 0 Z " fill="#343334" transform="translate(442,354)"/>
<path d="M0 0 C2.88575819 0.39803561 3.82189513 0.79009069 5.75 3.0625 C6.1625 3.701875 6.575 4.34125 7 5 C4 5 4 5 1.8125 3.0625 C0 1 0 1 0 0 Z " fill="#DDDEE0" transform="translate(585,322)"/>
<path d="M0 0 C2.88575819 0.39803561 3.82189513 0.79009069 5.75 3.0625 C6.1625 3.701875 6.575 4.34125 7 5 C4 5 4 5 1.8125 3.0625 C0 1 0 1 0 0 Z " fill="#DDDEE0" transform="translate(569,306)"/>
<path d="M0 0 C2.88575819 0.39803561 3.82189513 0.79009069 5.75 3.0625 C6.1625 3.701875 6.575 4.34125 7 5 C4 5 4 5 1.8125 3.0625 C0 1 0 1 0 0 Z " fill="#DDDEE0" transform="translate(537,274)"/>
</svg>
